<svg width="100" height="75" viewBox="0 0 100 75" fill="none" xmlns="http://www.w3.org/2000/svg">
<g clip-path="url(#clip0_605_754)">
<path d="M93.9366 46.2358C93.9366 60.5646 82.3931 66.424 68.149 66.424C53.9049 66.424 42.3613 60.5646 42.3613 46.2358C42.3613 31.9069 53.9049 14.5419 68.149 14.5419C82.3931 14.5419 93.9366 31.9069 93.9366 46.2358Z" fill="#D2AA65"/>
<path d="M82.5786 40.9889C82.5786 49.0056 76.1185 55.5042 68.1492 55.5042C60.1799 55.5042 53.7197 49.0056 53.7197 40.9889C53.7197 32.9722 60.1799 26.4736 68.1492 26.4736C76.1185 26.5003 82.5786 32.9988 82.5786 40.9889Z" fill="#E8B771"/>
<path d="M80.2485 1.65123C79.216 0.852228 77.8127 0.745694 76.6478 1.305L74.6886 2.23717C73.656 2.74321 72.4381 2.68994 71.432 2.104L70.3994 0.958762C69.1815 -0.34628 67.1164 -0.34628 65.925 0.958762L64.8659 2.13064C63.8599 2.71657 62.642 2.74321 61.6094 2.2638L59.6502 1.33163C58.4852 0.772328 57.082 0.878862 56.0494 1.67787C54.6462 2.79648 54.355 4.76736 55.3346 6.20557L63.2774 18.2173L68.149 14.5685L73.0206 18.2173L80.9634 6.20557C81.943 4.74072 81.6518 2.74321 80.2485 1.65123Z" fill="#D2AA65"/>
<path d="M76.1979 16.779H59.9416C59.3856 16.779 58.9355 16.3263 58.9355 15.767C58.9355 15.2077 59.3856 14.7549 59.9416 14.7549H76.1979C76.7539 14.7549 77.204 15.2077 77.204 15.767C77.204 16.3263 76.7539 16.779 76.1979 16.779Z" fill="#7F705A"/>
<path d="M76.1979 14.8348H59.9416C59.3856 14.8348 58.9355 14.382 58.9355 13.8227C58.9355 13.2634 59.3856 12.8107 59.9416 12.8107H76.1979C76.7539 12.8107 77.204 13.2634 77.204 13.8227C77.204 14.3554 76.7539 14.8348 76.1979 14.8348Z" fill="#7F705A"/>
<path d="M74.6616 35.0762V34.8898C74.6616 34.4637 74.3174 34.1174 73.8938 34.1174H63.9123C63.6211 34.1174 63.3828 34.3571 63.3828 34.6501V36.3546C63.3828 36.7009 63.6741 36.9938 64.0182 36.9938H64.1506C65.3156 36.9938 66.1628 37.1537 66.7188 37.4999C67.0365 37.6863 67.2748 37.9793 67.4072 38.3255H64.1771C63.7535 38.3255 63.4093 38.6718 63.4093 39.0979V39.4175C63.4093 39.8436 63.7535 40.1899 64.1771 40.1899H67.3807C67.2483 40.5095 67.0365 40.7758 66.7453 40.9889C66.2158 41.3617 65.3685 41.5482 64.23 41.5482H64.1506C63.727 41.5482 63.3828 41.8944 63.3828 42.3206V43.6789C63.3828 44.105 63.727 44.4512 64.1506 44.4512H64.9714L68.7575 50.6036C68.8898 50.8433 69.1546 50.9765 69.4194 50.9765H71.4845C72.1199 50.9765 72.4641 50.284 72.1199 49.7513C71.2197 48.393 69.843 46.3422 67.9896 43.5723C68.9957 43.1196 69.7635 42.5336 70.3195 41.7346C70.6637 41.2552 70.902 40.7225 71.0344 40.1632H73.8673C74.2909 40.1632 74.6351 39.817 74.6351 39.3909V39.0713C74.6351 38.6451 74.2909 38.2989 73.8673 38.2989H71.0609C70.955 37.2868 70.6108 36.4878 70.0548 35.822H73.8673C74.3174 35.8752 74.6616 35.529 74.6616 35.0762Z" fill="#645848"/>
<path d="M73.8418 31.7471V15.3942C73.8418 14.8348 74.2919 14.3821 74.8479 14.3821C75.4039 14.3821 75.854 14.8348 75.854 15.3942V31.7471C75.854 32.3064 75.4039 32.7592 74.8479 32.7592C74.2919 32.7592 73.8418 32.3064 73.8418 31.7471Z" fill="#7F705A"/>
<path d="M70.6113 24.2897V14.7283C70.6113 14.169 71.0614 13.7162 71.6174 13.7162C72.1734 13.7162 72.6235 14.169 72.6235 14.7283V24.2631C72.6235 24.8224 72.1734 25.2751 71.6174 25.2751C71.0614 25.3018 70.6113 24.849 70.6113 24.2897Z" fill="#7F705A"/>
<path d="M3.83848 40.1899C1.64097 44.8508 0.370117 49.9112 0.370117 54.6519C0.370117 68.9808 11.9137 74.8402 26.1578 74.8402C40.4019 74.8402 51.9454 68.9808 51.9454 54.6519C51.9454 49.9112 50.6746 44.8508 48.4771 40.1899H3.83848Z" fill="#E4B363"/>
<path d="M15.038 40.1899C12.9729 42.6935 11.7285 45.9161 11.7285 49.4318C11.7285 57.4485 18.1887 63.947 26.158 63.947C34.1273 63.947 40.5874 57.4485 40.5874 49.4318C40.5874 45.9161 39.343 42.7201 37.2779 40.1899H15.038Z" fill="#F6C378"/>
<path d="M32.6705 43.5191V43.3327C32.6705 42.9065 32.3263 42.5603 31.9027 42.5603H21.9212C21.63 42.5603 21.3917 42.8 21.3917 43.093V44.7975C21.3917 45.1438 21.6829 45.4367 22.0271 45.4367H22.1595C23.3245 45.4367 24.1717 45.5965 24.7277 45.9428C25.0454 46.1292 25.2837 46.4222 25.4161 46.7684H22.1595C21.7359 46.7684 21.3917 47.1146 21.3917 47.5408V47.8604C21.3917 48.2865 21.7359 48.6327 22.1595 48.6327H25.3631C25.2307 48.9523 25.0189 49.2187 24.7277 49.4318C24.1982 49.8046 23.3509 49.9911 22.2125 49.9911H22.133C21.7094 49.9911 21.3652 50.3373 21.3652 50.7634V52.1217C21.3652 52.5479 21.7094 52.8941 22.133 52.8941H22.9538L26.7399 59.0465C26.8722 59.2862 27.137 59.4193 27.4018 59.4193H29.4669C30.1023 59.4193 30.4465 58.7269 30.1023 58.1942C29.2021 56.8359 27.8254 54.7851 25.9721 52.0152C26.9781 51.5624 27.746 50.9765 28.302 50.1775C28.6461 49.6981 28.8844 49.1654 29.0168 48.6061H31.9027C32.3263 48.6061 32.6705 48.2599 32.6705 47.8337V47.5141C32.6705 47.088 32.3263 46.7418 31.9027 46.7418H29.0962C28.9903 45.7297 28.6461 44.9307 28.0901 44.2648H31.9027C32.3263 44.2915 32.6705 43.9452 32.6705 43.5191Z" fill="#645848"/>
<path d="M49.9333 41.4417C34.3389 45.1971 18.0827 45.1971 2.48828 41.4417C0.714383 41.0156 -0.344658 39.2844 0.105434 37.6864C0.13191 37.6331 0.13191 37.5799 0.158386 37.5266C0.608479 35.902 2.30294 34.9698 3.94446 35.3427C18.5857 38.8583 33.8359 38.8583 48.5036 35.3427C50.1451 34.9432 51.8396 35.902 52.2897 37.5266C52.3162 37.5799 52.3162 37.6331 52.3426 37.6864C52.7663 39.2844 51.7072 41.0156 49.9333 41.4417Z" fill="#EECA9B"/>
<path opacity="0.32" d="M13.1592 35.8221H12.7885C11.9943 34.7301 10.1939 33.9578 8.0758 33.9578C5.95772 33.9578 4.15735 34.7301 3.36307 35.8221H2.99241L2.93945 37.0473C2.93945 38.7518 5.21639 40.1367 8.04933 40.1367C10.8823 40.1367 13.1592 38.7518 13.1592 37.0473V35.8221Z" fill="#998329"/>
<path d="M13.0264 35.0232H12.6557C11.8614 33.9312 10.0611 33.1588 7.94299 33.1588C5.82491 33.1588 4.02454 33.9312 3.23026 35.0232H2.85959L2.80664 36.2483C2.80664 37.9529 5.08358 39.3378 7.91651 39.3378C10.7495 39.3378 13.0264 37.9529 13.0264 36.2483V35.0232Z" fill="#F1B633"/>
<path d="M7.96914 31.9602C10.7756 31.9602 13.0525 33.3185 13.0525 35.0231C13.0525 36.701 10.7756 38.0859 7.96914 38.0859C5.16268 38.0859 2.88574 36.7276 2.88574 35.0231C2.88574 33.3185 5.16268 31.9602 7.96914 31.9602Z" fill="#F1B633"/>
<path d="M7.96914 38.4588C10.7766 38.4588 13.0525 36.9564 13.0525 35.103C13.0525 33.2496 10.7766 31.7472 7.96914 31.7472C5.16166 31.7472 2.88574 33.2496 2.88574 35.103C2.88574 36.9564 5.16166 38.4588 7.96914 38.4588Z" fill="#F2CD30"/>
<path d="M7.96945 37.5799C10.1628 37.5799 11.9409 36.4352 11.9409 35.0231C11.9409 33.611 10.1628 32.4663 7.96945 32.4663C5.77611 32.4663 3.99805 33.611 3.99805 35.0231C3.99805 36.4352 5.77611 37.5799 7.96945 37.5799Z" fill="#EAA00E"/>
<path d="M8.20773 37.5799C10.2695 37.5799 11.9408 36.5067 11.9408 35.1829C11.9408 33.8591 10.2695 32.7859 8.20773 32.7859C6.14598 32.7859 4.47461 33.8591 4.47461 35.1829C4.47461 36.5067 6.14598 37.5799 8.20773 37.5799Z" fill="#F1B633"/>
<path opacity="0.32" d="M28.2242 33.2386L27.88 33.3984C26.6356 32.5195 24.5705 32.3863 22.5583 33.2386C20.5461 34.0909 19.1694 35.6356 18.9311 37.1537L18.5869 37.3135L19.0635 38.6186C19.8313 40.4829 22.6377 41.0689 25.3383 39.9502C28.0389 38.8316 29.6009 36.408 28.8331 34.5436L28.2242 33.2386Z" fill="#998329"/>
<path d="M27.7739 33.4252L27.4297 33.5583C26.2912 32.8392 24.332 32.8392 22.3728 33.6649C20.4135 34.4905 19.0368 35.8754 18.7456 37.2071L18.4014 37.3403L18.825 38.4855C19.4604 40.0569 22.108 40.4298 24.7291 39.3378C27.3503 38.2458 28.9388 36.0885 28.2769 34.5171L27.7739 33.4252Z" fill="#F1B633"/>
<path d="M21.9489 32.5729C24.5435 31.4809 27.1647 31.8804 27.8001 33.4251C28.4355 34.9699 26.8734 37.1006 24.2788 38.1925C21.6841 39.2845 19.063 38.885 18.4276 37.3403C17.7657 35.7955 19.3542 33.6648 21.9489 32.5729Z" fill="#F1B633"/>
<path d="M21.8691 32.3864C24.4638 31.2944 27.1379 31.8004 27.8262 33.505C28.5146 35.2095 27.0055 37.4467 24.4108 38.5387C21.8162 39.6307 19.1421 39.1247 18.4537 37.4201C17.7389 35.7156 19.2745 33.4517 21.8691 32.3864Z" fill="#F2CD30"/>
<path d="M22.134 33.0522C24.1462 32.1999 26.2378 32.5728 26.7673 33.8778C27.2968 35.1829 26.1054 36.9141 24.0932 37.7663C22.0811 38.6186 19.9895 38.2457 19.4599 36.9407C18.9039 35.6357 20.1218 33.8778 22.134 33.0522Z" fill="#EAA00E"/>
<path d="M22.4788 33.2386C24.3851 32.4396 26.3178 32.7858 26.8209 34.011C27.3239 35.2361 26.1855 36.8608 24.3057 37.6598C22.3994 38.4588 20.4666 38.1125 19.9636 36.8874C19.4605 35.6623 20.5725 34.0376 22.4788 33.2386Z" fill="#F1B633"/>
<path opacity="0.32" d="M34.2869 27.9652L33.9162 28.0451C32.9366 27.1396 31.0039 26.7667 28.9388 27.2195C26.8736 27.6456 25.2586 28.7909 24.7291 30.016L24.3584 30.0959L24.5702 31.2944C24.9144 32.9457 27.4296 33.8246 30.2096 33.2387C32.9631 32.6527 34.9223 30.815 34.5781 29.1637L34.2869 27.9652Z" fill="#998329"/>
<path d="M34.0486 27.5125L33.678 27.5924C32.6983 26.6868 30.7656 26.314 28.7005 26.7667C26.6353 27.1929 25.0203 28.3381 24.4908 29.5632L24.1201 29.6431L24.3319 30.8417C24.6761 32.4929 27.1913 33.3718 29.9713 32.7859C32.7248 32.2 34.684 30.3622 34.3399 28.711L34.0486 27.5125Z" fill="#F1B633"/>
<path d="M28.4622 25.5949C31.1892 25.0089 33.7044 25.8612 34.0486 27.5125C34.3928 29.1638 32.4601 30.9749 29.7066 31.5342C26.9795 32.1201 24.4643 31.2678 24.1201 29.6165C23.8024 27.9919 25.7351 26.1808 28.4622 25.5949Z" fill="#F1B633"/>
<path d="M28.4358 25.3818C31.1893 24.7959 33.7045 25.7813 34.0752 27.5924C34.4458 29.4035 32.5395 31.3211 29.786 31.907C27.0325 32.493 24.5173 31.5075 24.1466 29.6964C23.776 27.912 25.6823 25.9678 28.4358 25.3818Z" fill="#F2CD30"/>
<path d="M28.5678 26.101C30.7124 25.6482 32.6716 26.3939 32.9629 27.7789C33.2541 29.1638 31.745 30.6553 29.6004 31.1081C27.4558 31.5608 25.4966 30.8151 25.2054 29.4301C24.9406 28.0186 26.4233 26.5537 28.5678 26.101Z" fill="#EAA00E"/>
<path d="M28.8858 26.3406C30.898 25.9144 32.7513 26.6069 33.0161 27.912C33.2809 29.217 31.8776 30.6019 29.8655 31.0281C27.8533 31.4542 26 30.7617 25.7352 29.4567C25.4704 28.1783 26.8737 26.7667 28.8858 26.3406Z" fill="#F1B633"/>
<path opacity="0.32" d="M17.236 27.5391L16.9183 27.6989C15.7269 27.1396 13.7676 27.2994 11.8878 28.2316C10.0345 29.1638 8.79015 30.5754 8.60482 31.8271L8.28711 31.9869L8.81663 32.999C9.61091 34.384 12.2585 34.5171 14.7737 33.2653C17.2625 32.0136 18.6392 29.8829 17.8714 28.4713L17.236 27.5391Z" fill="#998329"/>
<path d="M16.8395 27.0065L16.5218 27.1663C15.3304 26.607 13.3712 26.7668 11.4914 27.699C9.63804 28.6312 8.39367 30.0428 8.20834 31.2945L7.89062 31.4543L8.42015 32.4664C9.21443 33.8513 11.862 33.9845 14.3773 32.7327C16.866 31.481 18.2428 29.3503 17.475 27.9387L16.8395 27.0065Z" fill="#F1B633"/>
<path d="M10.9353 26.7401C13.3975 25.515 16.0451 25.6215 16.8394 27.0065C17.6337 28.3914 16.257 30.5221 13.7682 31.7472C11.3059 32.9724 8.65834 32.8658 7.86405 31.4809C7.09625 30.096 8.473 27.9653 10.9353 26.7401Z" fill="#F1B633"/>
<path d="M10.8556 26.5537C13.3443 25.3286 16.0449 25.5416 16.8921 27.0597C17.7393 28.5779 16.442 30.8151 13.9533 32.0402C11.4645 33.2654 8.76397 33.0523 7.91673 31.5342C7.04303 30.0161 8.36683 27.8055 10.8556 26.5537Z" fill="#F2CD30"/>
<path d="M11.1736 27.1663C13.1064 26.2075 15.198 26.3673 15.8599 27.5126C16.5218 28.6845 15.4892 30.389 13.5565 31.3478C11.6237 32.3066 9.5321 32.1468 8.8702 31.0016C8.2083 29.8297 9.24087 28.1251 11.1736 27.1663Z" fill="#EAA00E"/>
<path d="M11.5435 27.2995C13.3704 26.3939 15.3296 26.5537 15.9386 27.6457C16.5475 28.7377 15.5944 30.3623 13.7675 31.2679C11.9407 32.1734 9.98146 32.0136 9.37251 30.9216C8.73709 29.8297 9.7167 28.205 11.5435 27.2995Z" fill="#F1B633"/>
<path opacity="0.32" d="M27.4025 26.3406H27.0318C26.1846 25.3286 24.3577 24.6095 22.2661 24.6361C20.201 24.6627 18.4536 25.4085 17.7652 26.4472H17.3945L17.421 27.5924C17.5269 29.1904 19.8833 30.4688 22.6633 30.4422C25.4432 30.4156 27.6143 29.0839 27.5084 27.4859L27.4025 26.3406Z" fill="#998329"/>
<path d="M27.2706 25.8079H26.9C26.0527 24.7958 24.2259 24.0767 22.1343 24.1034C20.0692 24.13 18.3217 24.8757 17.6334 25.9145H17.2627L17.2892 27.0597C17.3951 28.6577 19.7514 29.9361 22.5314 29.9095C25.3114 29.8828 27.4824 28.5512 27.3765 26.9532L27.2706 25.8079Z" fill="#F1B633"/>
<path d="M22.0812 22.9848C24.8347 22.9582 27.1646 24.2099 27.2705 25.8079C27.3764 27.406 25.2318 28.711 22.4783 28.7376C19.7248 28.7643 17.3949 27.5125 17.289 25.9145C17.1566 24.3431 19.3012 23.0114 22.0812 22.9848Z" fill="#F1B633"/>
<path d="M22.0547 22.7984C24.8082 22.7717 27.1646 24.1567 27.2705 25.8878C27.4029 27.619 25.2583 29.0572 22.4783 29.0839C19.7248 29.1105 17.3685 27.7256 17.2625 25.9944C17.1566 24.2632 19.3012 22.825 22.0547 22.7984Z" fill="#F2CD30"/>
<path d="M22.108 23.4642C24.2526 23.4376 26.0794 24.5029 26.1853 25.8346C26.2648 27.1663 24.5968 28.2583 22.4522 28.2849C20.3076 28.3115 18.4808 27.2462 18.3749 25.9145C18.269 24.6095 19.937 23.4909 22.108 23.4642Z" fill="#EAA00E"/>
<path d="M22.3728 23.7571C24.385 23.7305 26.106 24.7159 26.1854 25.9677C26.2648 27.2195 24.7027 28.2582 22.6641 28.2848C20.6519 28.3115 18.931 27.326 18.8515 26.0742C18.7721 24.8225 20.3342 23.7838 22.3728 23.7571Z" fill="#F1B633"/>
<path opacity="0.32" d="M50.4108 35.3693L50.0931 35.2095C49.9343 33.7979 48.7693 32.2798 46.9425 31.4009C45.1421 30.4954 43.2093 30.4954 42.0179 31.2411L41.7002 31.0813L41.0912 32.2532C40.2705 33.9311 41.5943 36.2482 44.0036 37.4467C46.4394 38.6452 49.0605 38.2724 49.8813 36.5944L50.4108 35.3693Z" fill="#998329"/>
<path d="M50.9139 35.396L50.5697 35.2362C50.3314 33.9045 49.0606 32.413 47.1543 31.4809C45.2745 30.5487 43.3153 30.4421 42.1238 31.0813L41.7797 30.9215L41.1972 31.9869C40.4559 33.505 41.912 35.7689 44.4537 37.0206C46.9954 38.2724 49.643 38.0593 50.3844 36.5146L50.9139 35.396Z" fill="#F1B633"/>
<path d="M47.6837 30.4155C50.1989 31.6673 51.6286 33.8779 50.9138 35.396C50.1724 36.9141 47.5513 37.1272 45.0361 35.8754C42.5209 34.6236 41.0912 32.413 41.806 30.8949C42.5209 29.4035 45.1685 29.1904 47.6837 30.4155Z" fill="#F1B633"/>
<path d="M47.7633 30.2291C50.2785 31.4808 51.6818 33.8246 50.861 35.4759C50.0667 37.1272 47.3662 37.4468 44.8509 36.2216C42.3357 34.9698 40.9325 32.6261 41.7532 30.9748C42.574 29.3235 45.2481 29.0039 47.7633 30.2291Z" fill="#F2CD30"/>
<path d="M47.4716 30.8683C49.4308 31.8271 50.5163 33.6382 49.9074 34.9166C49.2984 36.1684 47.2068 36.4081 45.2476 35.4493C43.2884 34.4905 42.2029 32.6794 42.8118 31.401C43.3943 30.1492 45.4859 29.9095 47.4716 30.8683Z" fill="#EAA00E"/>
<path d="M47.5517 31.2678C49.405 32.1734 50.4111 33.8779 49.8551 35.0764C49.2726 36.2749 47.3134 36.488 45.46 35.5825C43.6067 34.6769 42.6006 32.9724 43.1566 31.7739C43.7391 30.5753 45.6983 30.3623 47.5517 31.2678Z" fill="#F1B633"/>
<path d="M43.8708 29.0839H43.5001C42.6794 28.0186 40.8525 27.2995 38.7609 27.3527C36.6428 27.406 34.8689 28.2317 34.1011 29.3503H33.7305V30.5754C33.7834 32.28 36.1133 33.585 38.9198 33.5051C41.7527 33.4252 44.0032 31.987 43.9502 30.2824L43.8708 29.0839Z" fill="#F1B633"/>
<path d="M38.7343 26.1809C41.5407 26.1009 43.8442 27.406 43.8971 29.0839C43.9501 30.7618 41.6996 32.2 38.9196 32.2799C36.1132 32.3598 33.8097 31.0548 33.7568 29.3769C33.7038 27.6723 35.9278 26.2608 38.7343 26.1809Z" fill="#F1B633"/>
<path d="M38.7079 25.9678C41.5144 25.8879 43.8178 27.3261 43.8707 29.1638C43.9237 31.0015 41.6997 32.5463 38.8932 32.6262C36.0868 32.7061 33.7834 31.2678 33.7304 29.4301C33.6775 27.5924 35.9279 26.0477 38.7079 25.9678Z" fill="#F2CD30"/>
<path d="M38.7341 26.6869C40.9316 26.6337 42.732 27.7256 42.7584 29.1372C42.7849 30.5488 41.064 31.7473 38.8665 31.8006C36.6689 31.8538 34.8686 30.7619 34.8421 29.3503C34.8156 27.9387 36.563 26.7402 38.7341 26.6869Z" fill="#EAA00E"/>
<path d="M38.9987 26.9798C41.0638 26.9265 42.7583 27.9386 42.7848 29.2703C42.8112 30.6019 41.1962 31.7206 39.1311 31.7738C37.0659 31.8271 35.3715 30.815 35.345 29.4833C35.292 28.1517 36.9336 27.0331 38.9987 26.9798Z" fill="#F1B633"/>
<path opacity="0.32" d="M42.9973 35.3427L42.6267 35.2895C41.9912 34.1176 40.2968 33.1055 38.2052 32.8392C36.1136 32.5728 34.2338 33.1055 33.3071 34.0643L32.9364 34.011L32.7511 35.2096C32.5393 36.8875 34.6309 38.5387 37.4374 38.9116C40.2438 39.2845 42.6796 38.2191 42.8914 36.5146L42.9973 35.3427Z" fill="#998329"/>
<path d="M42.9973 34.5436L42.6267 34.4904C41.9912 33.3185 40.2968 32.3064 38.2052 32.0401C36.1136 31.7738 34.2338 32.3064 33.3071 33.2652L32.9364 33.212L32.7511 34.4105C32.5393 36.0884 34.6309 37.7397 37.4374 38.1125C40.2438 38.4854 42.6796 37.4201 42.8914 35.7155L42.9973 34.5436Z" fill="#F1B633"/>
<path d="M38.3644 30.8682C41.1444 31.2411 43.2095 32.8657 42.9977 34.5436C42.7859 36.2216 40.3501 37.2603 37.5701 36.914C34.7901 36.5412 32.725 34.9165 32.9368 33.2386C33.1486 31.5607 35.5844 30.522 38.3644 30.8682Z" fill="#F1B633"/>
<path d="M38.3908 30.6552C41.1707 31.0281 43.2359 32.7859 42.9976 34.597C42.7593 36.408 40.3235 37.6066 37.5435 37.2337C34.7635 36.8608 32.6984 35.103 32.9367 33.2919C33.1485 31.4808 35.6108 30.309 38.3908 30.6552Z" fill="#F2CD30"/>
<path d="M38.2849 31.3743C40.456 31.6672 42.071 33.0255 41.8857 34.4105C41.7003 35.7954 39.7941 36.701 37.623 36.4346C35.452 36.1417 33.837 34.7834 34.0223 33.3984C34.2076 31.9868 36.1139 31.0813 38.2849 31.3743Z" fill="#EAA00E"/>
<path d="M38.4967 31.7205C40.5353 31.9868 42.0444 33.2652 41.8856 34.5703C41.7267 35.8753 39.9264 36.7276 37.8877 36.4613C35.8491 36.1949 34.3399 34.9165 34.4988 33.6115C34.6576 32.3064 36.458 31.4542 38.4967 31.7205Z" fill="#F1B633"/>
<path opacity="0.32" d="M20.6786 36.8075C20.6786 39.1779 18.7723 41.0955 16.416 41.0955C14.0596 41.0955 12.1533 39.1779 12.1533 36.8075C12.1533 34.4371 14.0596 32.5195 16.416 32.5195C18.7723 32.5195 20.6786 34.4371 20.6786 36.8075Z" fill="#998329"/>
<path d="M20.0692 36.0618C20.0692 38.4322 18.163 40.3498 15.8066 40.3498C13.4502 40.3498 11.5439 38.4322 11.5439 36.0618C11.5439 33.6914 13.4502 31.7738 15.8066 31.7738C18.163 31.7738 20.0692 33.6914 20.0692 36.0618Z" fill="#F2CD30"/>
<path d="M19.1427 36.0618C19.1427 37.9261 17.66 39.4176 15.8067 39.4176C13.9534 39.4176 12.4707 37.9261 12.4707 36.0618C12.4707 34.1974 13.9534 32.7059 15.8067 32.7059C17.6335 32.7326 19.1427 34.224 19.1427 36.0618Z" fill="#EAA00E"/>
<path d="M18.719 36.2748C18.719 38.006 17.3158 39.4176 15.5949 39.4176C13.8739 39.4176 12.4707 38.006 12.4707 36.2748C12.4707 34.5437 13.8739 33.1321 15.5949 33.1321C17.3423 33.1321 18.719 34.5437 18.719 36.2748Z" fill="#F1B633"/>
<path opacity="0.32" d="M34.9227 33.3186C36.0082 35.4227 35.1874 38.0061 33.0958 39.0981C31.0042 40.1901 28.436 39.3644 27.3505 37.2604C26.265 35.1563 27.0858 32.5729 29.1774 31.4809C31.269 30.4156 33.8372 31.2146 34.9227 33.3186Z" fill="#998329"/>
<path d="M34.0486 32.9457C35.1342 35.0498 34.3134 37.6332 32.2218 38.7252C30.1302 39.8172 27.562 38.9915 26.4765 36.8875C25.391 34.7834 26.2117 32.2 28.3033 31.108C30.3685 30.0426 32.9631 30.8417 34.0486 32.9457Z" fill="#F2CD30"/>
<path d="M33.2012 33.3985C34.0484 35.0498 33.413 37.0739 31.7715 37.9262C30.13 38.7785 28.1178 38.1393 27.2706 36.488C26.4233 34.8367 27.0588 32.8126 28.7003 31.9603C30.3418 31.108 32.354 31.7472 33.2012 33.3985Z" fill="#EAA00E"/>
<path d="M32.9368 33.7713C33.731 35.316 33.1221 37.207 31.613 38.006C30.0774 38.805 28.1976 38.1925 27.4033 36.6744C26.609 35.1296 27.2179 33.2386 28.7271 32.4396C30.2627 31.614 32.1425 32.2266 32.9368 33.7713Z" fill="#F1B633"/>
<path opacity="0.32" d="M22.5579 34.7835C20.4663 35.8755 17.8982 35.0232 16.8126 32.9191C15.7271 30.8151 16.5744 28.2317 18.666 27.1397C20.7576 26.0477 23.3257 26.9 24.4113 29.004C25.4703 31.1081 24.6495 33.6915 22.5579 34.7835Z" fill="#998329"/>
<path d="M22.2933 34.1176C20.2017 35.2096 17.6335 34.3573 16.548 32.2533C15.4625 30.1492 16.3097 27.5658 18.4013 26.4738C20.4929 25.3818 23.0611 26.2341 24.1466 28.3381C25.2057 30.4422 24.3849 33.0256 22.2933 34.1176Z" fill="#F2CD30"/>
<path d="M21.8699 33.2653C20.2284 34.1176 18.2162 33.4517 17.3955 31.8271C16.5483 30.1758 17.2102 28.1517 18.8252 27.326C20.4667 26.4738 22.4789 27.1396 23.2996 28.7642C24.1469 30.4155 23.485 32.413 21.8699 33.2653Z" fill="#EAA00E"/>
<path d="M21.499 32.999C19.9634 33.798 18.0836 33.1855 17.2893 31.6407C16.495 30.096 17.104 28.205 18.6396 27.406C20.1752 26.607 22.055 27.2196 22.8493 28.7643C23.6435 30.309 23.0346 32.2 21.499 32.999Z" fill="#F1B633"/>
<path d="M64.2568 46.3157L63.9126 47.0348H52.0249V72.1768L51.2041 73.908L52.0249 74.6537H65.0775V47.0348L64.2568 46.3157Z" fill="#58A967"/>
<path d="M64.2412 73.9193V46.3003H51.1885L51.1885 73.9193H64.2412Z" fill="#58C670"/>
<path d="M60.498 72.0437C60.498 70.6854 61.5041 69.9663 62.5367 69.913V50.2308H62.3778C61.7954 50.2308 61.2394 49.9911 60.8158 49.5916C60.3921 49.1655 60.1803 48.6062 60.1803 48.0203H55.2823C55.2823 48.0735 55.2823 48.1268 55.2823 48.1801C55.2823 48.766 55.044 49.3253 54.6468 49.7514C54.2497 50.1776 53.6672 50.3906 53.0847 50.3906H52.9259C52.9259 50.3906 52.9259 50.3906 52.8994 50.3906V69.913C54.0114 69.913 55.1234 70.6321 55.1234 72.0437C55.1234 72.097 55.1234 72.1502 55.1234 72.2035H60.498C60.498 72.1502 60.498 72.097 60.498 72.0437Z" fill="#A4E894"/>
<path d="M57.718 64.1868C59.8529 64.1868 61.5835 62.4458 61.5835 60.2983C61.5835 58.1507 59.8529 56.4098 57.718 56.4098C55.5832 56.4098 53.8525 58.1507 53.8525 60.2983C53.8525 62.4458 55.5832 64.1868 57.718 64.1868Z" fill="#58C670"/>
<path d="M60.1008 62.1093H60.1537C60.2861 62.1093 60.392 62.0028 60.392 61.8696V58.647C60.392 58.5404 60.3126 58.4872 60.2332 58.4872H59.7036C59.5977 58.4872 59.4918 58.5671 59.4918 58.7002V58.7535C59.4918 59.1264 59.4389 59.3927 59.333 59.5792C59.28 59.6857 59.1741 59.7656 59.0682 59.7922V58.7535C59.0682 58.6204 58.9623 58.5138 58.8299 58.5138H58.724C58.5916 58.5138 58.4857 58.6204 58.4857 58.7535V59.7922C58.3798 59.739 58.3004 59.6857 58.221 59.5792C58.0886 59.3927 58.0356 59.1264 58.0356 58.7801V58.7535C58.0356 58.6204 57.9297 58.5138 57.7974 58.5138H57.3737C57.2414 58.5138 57.1354 58.6204 57.1354 58.7535V59.0199L55.1762 60.245C55.0968 60.2983 55.0703 60.3782 55.0703 60.4581V61.1239C55.0703 61.337 55.2821 61.4435 55.4675 61.337C55.8911 61.044 56.553 60.5912 57.4267 60.0053C57.5591 60.3249 57.7709 60.5646 58.0092 60.751C58.168 60.8576 58.3269 60.9375 58.5122 60.9641V61.8963C58.5122 62.0294 58.6181 62.136 58.7505 62.136H58.8564C58.9888 62.136 59.0947 62.0294 59.0947 61.8963V60.9907C59.4124 60.9641 59.6772 60.8576 59.889 60.6711V61.8963C59.8625 62.0028 59.9684 62.1093 60.1008 62.1093Z" fill="#DDFAD9"/>
<path d="M95.4994 56.9691H65.4756V59.3129H95.4994V56.9691Z" fill="#58C670"/>
<path d="M95.4994 58.7535H65.4756V59.3128H95.4994V58.7535Z" fill="#58A967"/>
<path d="M95.4731 56.9691H90.6279V59.3129H95.4731V56.9691Z" fill="#4DB761"/>
<path d="M95.4731 58.7535H90.6279V59.3128H95.4731V58.7535Z" fill="#4C9B57"/>
<path d="M95.4994 59.1531H65.4756V61.4968H95.4994V59.1531Z" fill="#58C670"/>
<path d="M95.4994 60.9375H65.4756V61.4968H95.4994V60.9375Z" fill="#58A967"/>
<path d="M95.4731 59.1531H90.6279V61.4968H95.4731V59.1531Z" fill="#4DB761"/>
<path d="M95.4731 60.9375H90.6279V61.4968H95.4731V60.9375Z" fill="#4C9B57"/>
<path d="M95.4994 61.337H65.4756V63.6808H95.4994V61.337Z" fill="#58C670"/>
<path d="M95.4994 63.1215H65.4756V63.6808H95.4994V63.1215Z" fill="#58A967"/>
<path d="M95.4731 61.337H90.6279V63.6808H95.4731V61.337Z" fill="#4DB761"/>
<path d="M95.4731 63.1215H90.6279V63.6808H95.4731V63.1215Z" fill="#4C9B57"/>
<path d="M95.4994 63.521H65.4756V65.8647H95.4994V63.521Z" fill="#58C670"/>
<path d="M95.4994 65.3054H65.4756V65.8647H95.4994V65.3054Z" fill="#58A967"/>
<path d="M95.4731 63.521H90.6279V65.8647H95.4731V63.521Z" fill="#4DB761"/>
<path d="M95.4731 65.3054H90.6279V65.8647H95.4731V65.3054Z" fill="#4C9B57"/>
<path d="M78.5547 56.9425H75.9336V65.8647H78.5547V56.9425Z" fill="#A4E894"/>
<path d="M69.984 68.2074H100.008V65.8636H69.984V68.2074Z" fill="#5CD673"/>
<path d="M69.984 68.2179H100.008V67.6586H69.984V68.2179Z" fill="#58A967"/>
<path d="M69.9918 68.2074H74.8369V65.8636H69.9918V68.2074Z" fill="#4AC65D"/>
<path d="M69.9918 68.2179H74.8369V67.6586H69.9918V68.2179Z" fill="#4C9B57"/>
<path d="M69.984 70.394H100.008V68.0503H69.984V70.394Z" fill="#5CD673"/>
<path d="M69.984 70.4048H100.008V69.8455H69.984V70.4048Z" fill="#58A967"/>
<path d="M69.9918 70.394H74.8369V68.0503H69.9918V70.394Z" fill="#4AC65D"/>
<path d="M69.9918 70.4048H74.8369V69.8455H69.9918V70.4048Z" fill="#4C9B57"/>
<path d="M69.984 72.5807H100.008V70.2369H69.984V72.5807Z" fill="#5CD673"/>
<path d="M69.984 72.5914H100.008V72.0321H69.984V72.5914Z" fill="#58A967"/>
<path d="M69.9918 72.5807H74.8369V70.2369H69.9918V72.5807Z" fill="#4AC65D"/>
<path d="M69.9918 72.5914H74.8369V72.0321H69.9918V72.5914Z" fill="#4C9B57"/>
<path d="M69.984 74.7673H100.008V72.4236H69.984V74.7673Z" fill="#5CD673"/>
<path d="M69.984 74.7781H100.008V74.2188H69.984V74.7781Z" fill="#58A967"/>
<path d="M69.9918 74.7673H74.8369V72.4236H69.9918V74.7673Z" fill="#4AC65D"/>
<path d="M69.9918 74.7781H74.8369V74.2188H69.9918V74.7781Z" fill="#4C9B57"/>
<path d="M86.9443 74.7457H89.5654V65.8235H86.9443V74.7457Z" fill="#A4E894"/>
<path d="M11.1207 68.2074H41.1445V65.8636H11.1207V68.2074Z" fill="#5CD673"/>
<path d="M11.1207 68.2179H41.1445V67.6586H11.1207V68.2179Z" fill="#58A967"/>
<path d="M11.1285 68.2074H15.9736V65.8636H11.1285V68.2074Z" fill="#4AC65D"/>
<path d="M11.1285 68.2179H15.9736V67.6586H11.1285V68.2179Z" fill="#4C9B57"/>
<path d="M11.1207 70.394H41.1445V68.0503H11.1207V70.394Z" fill="#5CD673"/>
<path d="M11.1207 70.4048H41.1445V69.8455H11.1207V70.4048Z" fill="#58A967"/>
<path d="M11.1285 70.394H15.9736V68.0503H11.1285V70.394Z" fill="#4AC65D"/>
<path d="M11.1285 70.4048H15.9736V69.8455H11.1285V70.4048Z" fill="#4C9B57"/>
<path d="M11.1207 72.5807H41.1445V70.2369H11.1207V72.5807Z" fill="#5CD673"/>
<path d="M11.1207 72.5914H41.1445V72.0321H11.1207V72.5914Z" fill="#58A967"/>
<path d="M11.1285 72.5807H15.9736V70.2369H11.1285V72.5807Z" fill="#4AC65D"/>
<path d="M11.1285 72.5914H15.9736V72.0321H11.1285V72.5914Z" fill="#4C9B57"/>
<path d="M11.1207 74.7673H41.1445V72.4236H11.1207V74.7673Z" fill="#5CD673"/>
<path d="M11.1207 74.7781H41.1445V74.2188H11.1207V74.7781Z" fill="#58A967"/>
<path d="M11.1285 74.7673H15.9736V72.4236H11.1285V74.7673Z" fill="#4AC65D"/>
<path d="M11.1285 74.7781H15.9736V74.2188H11.1285V74.7781Z" fill="#4C9B57"/>
<path d="M28.0546 74.7457H30.6758V65.8235H28.0546V74.7457Z" fill="#A4E894"/>
<path d="M50.8862 74.7602H40.587C40.2958 74.7602 40.084 74.5205 40.084 74.2542V73.2421C40.084 72.9492 40.3223 72.7361 40.587 72.7361H50.8862C51.1774 72.7361 51.3892 72.9758 51.3892 73.2421V74.2276C51.4157 74.5205 51.1774 74.7602 50.8862 74.7602Z" fill="#F1B633"/>
<path d="M50.9922 72.7361H49.0859V74.7602H50.9922C51.2305 74.7602 51.4158 74.5738 51.4158 74.3341V73.1622C51.4158 72.9225 51.204 72.7361 50.9922 72.7361Z" fill="#FAC55D"/>
<path d="M47.312 72.7361H41.9639V74.7602H47.312V72.7361Z" fill="#FAC55D"/>
<path d="M51.3361 72.9225C51.2566 72.816 51.1243 72.7361 50.9654 72.7361H40.5074C40.3485 72.7361 40.2161 72.816 40.1367 72.9225H51.3361Z" fill="#E0A022"/>
<path d="M40.1367 74.5739C40.2161 74.707 40.3485 74.7869 40.5074 74.7869H50.9919C51.1508 74.7869 51.2831 74.707 51.3626 74.5739H40.1367Z" fill="#E0A022"/>
<path d="M50.4096 72.7628H40.1105C39.8192 72.7628 39.6074 72.5231 39.6074 72.2567V71.2713C39.6074 70.9783 39.8457 70.7653 40.1105 70.7653H50.4096C50.7009 70.7653 50.9127 71.005 50.9127 71.2713V72.2567C50.9127 72.5231 50.6744 72.7628 50.4096 72.7628Z" fill="#F1B633"/>
<path d="M50.4893 70.7386H48.583V72.7628H50.4893C50.7276 72.7628 50.9129 72.5764 50.9129 72.3367V71.1648C50.9129 70.9251 50.7276 70.7386 50.4893 70.7386Z" fill="#FAC55D"/>
<path d="M46.8091 70.7386H41.4609V72.7628H46.8091V70.7386Z" fill="#FAC55D"/>
<path d="M50.8333 70.9251C50.7538 70.8185 50.6215 70.7386 50.4626 70.7386H39.9781C39.8192 70.7386 39.6868 70.8185 39.6074 70.9251H50.8333Z" fill="#E0A022"/>
<path d="M39.6602 72.5497C39.7396 72.6828 39.872 72.7627 40.0308 72.7627H50.5153C50.6742 72.7627 50.8065 72.6828 50.886 72.5497H39.6602Z" fill="#E0A022"/>
<path d="M50.8335 70.7386H40.5343C40.2431 70.7386 40.0312 70.4989 40.0312 70.2326V69.2471C40.0312 68.9542 40.2695 68.7411 40.5343 68.7411H50.8335C51.1247 68.7411 51.3365 68.9808 51.3365 69.2471V70.2326C51.363 70.5255 51.1247 70.7386 50.8335 70.7386Z" fill="#F1B633"/>
<path d="M50.9131 68.7145H49.0068V70.7386H50.9131C51.1514 70.7386 51.3367 70.5522 51.3367 70.3125V69.1406C51.3632 68.9009 51.1514 68.7145 50.9131 68.7145Z" fill="#FAC55D"/>
<path d="M47.2593 68.7145H41.9111V70.7386H47.2593V68.7145Z" fill="#FAC55D"/>
<path d="M51.2835 68.9275C51.204 68.821 51.0716 68.7411 50.9128 68.7411H40.4283C40.2694 68.7411 40.137 68.821 40.0576 68.9275H51.2835Z" fill="#E0A022"/>
<path d="M40.084 70.5522C40.1634 70.6854 40.2958 70.7653 40.4547 70.7653H50.9392C51.098 70.7653 51.2304 70.6854 51.3098 70.5522H40.084Z" fill="#E0A022"/>
<path d="M51.3364 68.7411H41.0372C40.746 68.7411 40.5342 68.5013 40.5342 68.235V67.2496C40.5342 66.9566 40.7725 66.7435 41.0372 66.7435H51.3364C51.6276 66.7435 51.8394 66.9832 51.8394 67.2496V68.235C51.8394 68.5013 51.6276 68.7411 51.3364 68.7411Z" fill="#F1B633"/>
<path d="M51.416 66.7169H49.5098V68.7411H51.416C51.6543 68.7411 51.8397 68.5546 51.8397 68.3149V67.1431C51.8397 66.9034 51.6543 66.7169 51.416 66.7169Z" fill="#FAC55D"/>
<path d="M47.7359 66.7169H42.3877V68.7411H47.7359V66.7169Z" fill="#FAC55D"/>
<path d="M51.7864 66.9034C51.707 66.7968 51.5746 66.7169 51.4157 66.7169H40.9312C40.7724 66.7169 40.64 66.7968 40.5605 66.9034H51.7864Z" fill="#E0A022"/>
<path d="M40.5869 68.528C40.6663 68.6611 40.7987 68.741 40.9576 68.741H51.4421C51.6009 68.741 51.7333 68.6611 51.8127 68.528H40.5869Z" fill="#E0A022"/>
<path d="M50.3305 66.7436H40.0314C39.7401 66.7436 39.5283 66.5039 39.5283 66.2376V65.2521C39.5283 64.9592 39.7666 64.7461 40.0314 64.7461H50.3305C50.6218 64.7461 50.8336 64.9858 50.8336 65.2521V66.2376C50.8601 66.5039 50.6218 66.7436 50.3305 66.7436Z" fill="#F1B633"/>
<path d="M50.4365 64.6929H48.5303V66.717H50.4365C50.6748 66.717 50.8602 66.5306 50.8602 66.2909V65.119C50.8602 64.9059 50.6748 64.6929 50.4365 64.6929Z" fill="#FAC55D"/>
<path d="M46.7564 64.6929H41.4082V66.717H46.7564V64.6929Z" fill="#FAC55D"/>
<path d="M50.7805 64.9059C50.7011 64.7994 50.5687 64.7195 50.4099 64.7195H39.9254C39.7665 64.7195 39.6341 64.7994 39.5547 64.9059H50.7805Z" fill="#E0A022"/>
<path d="M39.6074 66.5306C39.6868 66.6638 39.8192 66.7437 39.9781 66.7437H50.4626C50.6215 66.7437 50.7538 66.6638 50.8333 66.5306H39.6074Z" fill="#E0A022"/>
<path d="M51.0454 64.7195H40.7462C40.455 64.7195 40.2432 64.4798 40.2432 64.2134V63.228C40.2432 62.935 40.4814 62.7219 40.7462 62.7219H51.0454C51.3366 62.7219 51.5484 62.9616 51.5484 63.228V64.2134C51.5749 64.4798 51.3366 64.7195 51.0454 64.7195Z" fill="#F1B633"/>
<path d="M51.1514 62.6953H49.2451V64.7195H51.1514C51.3897 64.7195 51.575 64.533 51.575 64.2933V63.1215C51.575 62.8817 51.3897 62.6953 51.1514 62.6953Z" fill="#FAC55D"/>
<path d="M47.4712 62.6953H42.123V64.7195H47.4712V62.6953Z" fill="#FAC55D"/>
<path d="M51.4954 62.8818C51.416 62.7752 51.2836 62.6953 51.1247 62.6953H40.6402C40.4813 62.6953 40.349 62.7752 40.2695 62.8818H51.4954Z" fill="#E0A022"/>
<path d="M40.3223 64.5331C40.4017 64.6663 40.5341 64.7462 40.6929 64.7462H51.1774C51.3363 64.7462 51.4687 64.6663 51.5481 64.5331H40.3223Z" fill="#E0A022"/>
<path d="M51.8393 62.7219H41.5402C41.2489 62.7219 41.0371 62.4822 41.0371 62.2158V61.2304C41.0371 60.9374 41.2754 60.7244 41.5402 60.7244H51.8393C52.1306 60.7244 52.3424 60.9641 52.3424 61.2304V62.2158C52.3424 62.4822 52.1041 62.7219 51.8393 62.7219Z" fill="#F1B633"/>
<path d="M51.919 60.6711H50.0127V62.6953H51.919C52.1573 62.6953 52.3426 62.5089 52.3426 62.2691V61.0973C52.3426 60.8842 52.1573 60.6711 51.919 60.6711Z" fill="#FAC55D"/>
<path d="M48.2388 60.6711H42.8906V62.6953H48.2388V60.6711Z" fill="#FAC55D"/>
<path d="M52.2893 60.8842C52.2099 60.7777 52.0775 60.6978 51.9187 60.6978H41.4341C41.2753 60.6978 41.1429 60.7777 41.0635 60.8842H52.2893Z" fill="#E0A022"/>
<path d="M41.0898 62.5088C41.1693 62.6419 41.3017 62.7218 41.4605 62.7218H51.945C52.1039 62.7218 52.2363 62.6419 52.3157 62.5088H41.0898Z" fill="#E0A022"/>
<path d="M51.4956 60.6977H41.1964C40.9052 60.6977 40.6934 60.458 40.6934 60.1917V59.2062C40.6934 58.9133 40.9316 58.7002 41.1964 58.7002H51.4956C51.7868 58.7002 51.9986 58.9399 51.9986 59.2062V60.1917C52.0251 60.4846 51.7868 60.6977 51.4956 60.6977Z" fill="#F1B633"/>
<path d="M51.5752 58.6736H49.6689V60.6977H51.5752C51.8135 60.6977 51.9988 60.5113 51.9988 60.2716V59.0997C52.0253 58.86 51.8135 58.6736 51.5752 58.6736Z" fill="#FAC55D"/>
<path d="M47.9214 58.6736H42.5732V60.6977H47.9214V58.6736Z" fill="#FAC55D"/>
<path d="M51.9456 58.8866C51.8662 58.7801 51.7338 58.7002 51.5749 58.7002H41.0904C40.9315 58.7002 40.7992 58.7801 40.7197 58.8866H51.9456Z" fill="#E0A022"/>
<path d="M40.7461 60.5114C40.8255 60.6445 40.9579 60.7244 41.1168 60.7244H51.6013C51.7601 60.7244 51.8925 60.6445 51.9719 60.5114H40.7461Z" fill="#E0A022"/>
<path d="M50.6215 58.7003H40.3224C40.0311 58.7003 39.8193 58.4606 39.8193 58.1942V57.2088C39.8193 56.9158 40.0576 56.7028 40.3224 56.7028H50.6215C50.9128 56.7028 51.1246 56.9425 51.1246 57.2088V58.1942C51.1246 58.4606 50.9128 58.7003 50.6215 58.7003Z" fill="#F1B633"/>
<path d="M50.7012 56.6761H48.7949V58.7003H50.7012C50.9395 58.7003 51.1248 58.5139 51.1248 58.2742V57.1023C51.1248 56.8626 50.9395 56.6761 50.7012 56.6761Z" fill="#FAC55D"/>
<path d="M47.021 56.6761H41.6729V58.7003H47.021V56.6761Z" fill="#FAC55D"/>
<path d="M51.0714 56.8626C50.992 56.756 50.8596 56.6761 50.7008 56.6761H40.2427C40.0839 56.6761 39.9515 56.756 39.8721 56.8626H51.0714Z" fill="#E0A022"/>
<path d="M39.8721 58.4872C39.9515 58.6203 40.0839 58.7002 40.2427 58.7002H50.7272C50.8861 58.7002 51.0185 58.6203 51.0979 58.4872H39.8721Z" fill="#E0A022"/>
<path d="M51.4956 56.6229H41.1964C40.9052 56.6229 40.6934 56.3832 40.6934 56.1168V55.1314C40.6934 54.8384 40.9316 54.6254 41.1964 54.6254H51.4956C51.7868 54.6254 51.9986 54.8651 51.9986 55.1314V56.1168C52.0251 56.3832 51.7868 56.6229 51.4956 56.6229Z" fill="#F1B633"/>
<path d="M51.5752 54.5988H49.6689V56.6229H51.5752C51.8135 56.6229 51.9988 56.4364 51.9988 56.1967V55.0249C52.0253 54.7852 51.8135 54.5988 51.5752 54.5988Z" fill="#FAC55D"/>
<path d="M47.9214 54.5988H42.5732V56.6229H47.9214V54.5988Z" fill="#FAC55D"/>
<path d="M51.9456 54.7852C51.8662 54.6787 51.7338 54.5988 51.5749 54.5988H41.0904C40.9315 54.5988 40.7992 54.6787 40.7197 54.7852H51.9456Z" fill="#E0A022"/>
<path d="M40.7461 56.4098C40.8255 56.5429 40.9579 56.6228 41.1168 56.6228H51.6013C51.7601 56.6228 51.8925 56.5429 51.9719 56.4098H40.7461Z" fill="#E0A022"/>
<path d="M50.6215 54.5987H40.3224C40.0311 54.5987 39.8193 54.359 39.8193 54.0927V53.1072C39.8193 52.8143 40.0576 52.6012 40.3224 52.6012H50.6215C50.9128 52.6012 51.1246 52.8409 51.1246 53.1072V54.0927C51.1246 54.3856 50.9128 54.5987 50.6215 54.5987Z" fill="#F1B633"/>
<path d="M50.7012 52.5746H48.7949V54.5987H50.7012C50.9395 54.5987 51.1248 54.4123 51.1248 54.1726V53.0007C51.1248 52.761 50.9395 52.5746 50.7012 52.5746Z" fill="#FAC55D"/>
<path d="M47.021 52.5746H41.6729V54.5987H47.021V52.5746Z" fill="#FAC55D"/>
<path d="M51.0714 52.7876C50.992 52.6811 50.8596 52.6012 50.7008 52.6012H40.2427C40.0839 52.6012 39.9515 52.6811 39.8721 52.7876H51.0714Z" fill="#E0A022"/>
<path d="M39.8721 54.4124C39.9515 54.5455 40.0839 54.6254 40.2427 54.6254H50.7272C50.8861 54.6254 51.0185 54.5455 51.0979 54.4124H39.8721Z" fill="#E0A022"/>
<path d="M75.8804 74.7604H65.5812C65.2899 74.7604 65.0781 74.5207 65.0781 74.2543V73.2422C65.0781 72.9493 65.3164 72.7362 65.5812 72.7362H75.8804C76.1716 72.7362 76.3834 72.9759 76.3834 73.2422V74.2277C76.4099 74.5207 76.1716 74.7604 75.8804 74.7604Z" fill="#F1B633"/>
<path d="M75.9863 72.7362H74.0801V74.7604H75.9863C76.2246 74.7604 76.41 74.5739 76.41 74.3342V73.1623C76.41 72.9226 76.2246 72.7362 75.9863 72.7362Z" fill="#FAC55D"/>
<path d="M72.3061 72.7362H66.958V74.7604H72.3061V72.7362Z" fill="#FAC55D"/>
<path d="M76.3303 72.9226C76.2509 72.8161 76.1185 72.7362 75.9596 72.7362H65.4752C65.3163 72.7362 65.1839 72.8161 65.1045 72.9226H76.3303Z" fill="#E0A022"/>
<path d="M65.1309 74.574C65.2103 74.7071 65.3427 74.787 65.5015 74.787H75.986C76.1449 74.787 76.2773 74.7071 76.3567 74.574H65.1309Z" fill="#E0A022"/>
<path d="M75.4038 72.7628H65.1046C64.8134 72.7628 64.6016 72.5231 64.6016 72.2567V71.2713C64.6016 70.9783 64.8398 70.7653 65.1046 70.7653H75.4038C75.695 70.7653 75.9068 71.005 75.9068 71.2713V72.2567C75.9068 72.5231 75.6685 72.7628 75.4038 72.7628Z" fill="#F1B633"/>
<path d="M75.4834 70.7386H73.5771V72.7628H75.4834C75.7217 72.7628 75.907 72.5764 75.907 72.3367V71.1648C75.907 70.9251 75.7217 70.7386 75.4834 70.7386Z" fill="#FAC55D"/>
<path d="M71.8033 70.7386H66.4551V72.7628H71.8033V70.7386Z" fill="#FAC55D"/>
<path d="M75.8538 70.9251C75.7743 70.8185 75.642 70.7386 75.4831 70.7386H64.9986C64.8397 70.7386 64.7074 70.8185 64.6279 70.9251H75.8538Z" fill="#E0A022"/>
<path d="M64.6543 72.5497C64.7337 72.6828 64.8661 72.7627 65.025 72.7627H75.5095C75.6684 72.7627 75.8007 72.6828 75.8802 72.5497H64.6543Z" fill="#E0A022"/>
<path d="M75.8276 70.7386H65.5284C65.2372 70.7386 65.0254 70.4989 65.0254 70.2326V69.2471C65.0254 68.9542 65.2637 68.7411 65.5284 68.7411H75.8276C76.1189 68.7411 76.3307 68.9808 76.3307 69.2471V70.2326C76.3571 70.5255 76.1189 70.7386 75.8276 70.7386Z" fill="#F1B633"/>
<path d="M75.9336 68.7145H74.0273V70.7386H75.9336C76.1719 70.7386 76.3572 70.5522 76.3572 70.3125V69.1406C76.3572 68.9009 76.1719 68.7145 75.9336 68.7145Z" fill="#FAC55D"/>
<path d="M72.2534 68.7145H66.9053V70.7386H72.2534V68.7145Z" fill="#FAC55D"/>
<path d="M76.2776 68.9275C76.1982 68.821 76.0658 68.7411 75.9069 68.7411H65.4224C65.2636 68.7411 65.1312 68.821 65.0518 68.9275H76.2776Z" fill="#E0A022"/>
<path d="M65.0781 70.5522C65.1576 70.6854 65.2899 70.7653 65.4488 70.7653H75.9333C76.0921 70.7653 76.2245 70.6854 76.304 70.5522H65.0781Z" fill="#E0A022"/>
<path d="M76.3305 68.7411H66.0314C65.7401 68.7411 65.5283 68.5013 65.5283 68.235V67.2496C65.5283 66.9566 65.7666 66.7435 66.0314 66.7435H76.3305C76.6218 66.7435 76.8336 66.9832 76.8336 67.2496V68.235C76.8336 68.5013 76.6218 68.7411 76.3305 68.7411Z" fill="#F1B633"/>
<path d="M76.4102 66.7169H74.5039V68.7411H76.4102C76.6485 68.7411 76.8338 68.5546 76.8338 68.3149V67.1431C76.8338 66.9034 76.6485 66.7169 76.4102 66.7169Z" fill="#FAC55D"/>
<path d="M72.73 66.7169H67.3818V68.7411H72.73V66.7169Z" fill="#FAC55D"/>
<path d="M76.7805 66.9034C76.7011 66.7968 76.5687 66.7169 76.4099 66.7169H65.9254C65.7665 66.7169 65.6341 66.7968 65.5547 66.9034H76.7805Z" fill="#E0A022"/>
<path d="M65.5811 68.528C65.6605 68.6611 65.7929 68.741 65.9517 68.741H76.4363C76.5951 68.741 76.7275 68.6611 76.8069 68.528H65.5811Z" fill="#E0A022"/>
<path d="M75.3511 66.7436H65.0519C64.7606 66.7436 64.5488 66.5039 64.5488 66.2376V65.2521C64.5488 64.9592 64.7871 64.7461 65.0519 64.7461H75.3511C75.6423 64.7461 75.8541 64.9858 75.8541 65.2521V66.2376C75.8541 66.5039 75.6158 66.7436 75.3511 66.7436Z" fill="#F1B633"/>
<path d="M75.4307 64.6929H73.5244V66.717H75.4307C75.669 66.717 75.8543 66.5306 75.8543 66.2909V65.119C75.8543 64.9059 75.669 64.6929 75.4307 64.6929Z" fill="#FAC55D"/>
<path d="M71.7505 64.6929H66.4023V66.717H71.7505V64.6929Z" fill="#FAC55D"/>
<path d="M75.7747 64.9059C75.6952 64.7994 75.5629 64.7195 75.404 64.7195H64.9195C64.7606 64.7195 64.6283 64.7994 64.5488 64.9059H75.7747Z" fill="#E0A022"/>
<path d="M64.6016 66.5306C64.681 66.6638 64.8134 66.7437 64.9722 66.7437H75.4567C75.6156 66.7437 75.748 66.6638 75.8274 66.5306H64.6016Z" fill="#E0A022"/>
<path d="M76.0659 64.7195H65.7667C65.4755 64.7195 65.2637 64.4798 65.2637 64.2134V63.228C65.2637 62.935 65.502 62.7219 65.7667 62.7219H76.0659C76.3571 62.7219 76.5689 62.9616 76.5689 63.228V64.2134C76.5689 64.4798 76.3306 64.7195 76.0659 64.7195Z" fill="#F1B633"/>
<path d="M76.1455 62.6953H74.2393V64.7195H76.1455C76.3838 64.7195 76.5691 64.533 76.5691 64.2933V63.1215C76.5691 62.8817 76.3838 62.6953 76.1455 62.6953Z" fill="#FAC55D"/>
<path d="M72.4654 62.6953H67.1172V64.7195H72.4654V62.6953Z" fill="#FAC55D"/>
<path d="M76.4894 62.8818C76.41 62.7752 76.2776 62.6953 76.1188 62.6953H65.6607C65.5018 62.6953 65.3695 62.7752 65.29 62.8818H76.4894Z" fill="#E0A022"/>
<path d="M65.3164 64.5331C65.3958 64.6663 65.5282 64.7462 65.6871 64.7462H76.1716C76.3304 64.7462 76.4628 64.6663 76.5423 64.5331H65.3164Z" fill="#E0A022"/>
<path opacity="0.32" d="M83.002 66.5039C84.9612 68.2084 85.1466 71.1914 83.4521 73.1622C81.7576 75.1331 78.7923 75.3196 76.8331 73.615C74.8738 71.9105 74.6885 68.9275 76.383 66.9566C78.0774 64.9858 81.0428 64.7993 83.002 66.5039Z" fill="#998329"/>
<path d="M82.4991 66.5572C84.4848 68.315 84.6966 71.3512 82.9756 73.3487C81.2282 75.3463 78.2099 75.5593 76.2242 73.8282C74.2385 72.0703 74.0267 69.0341 75.7477 67.0366C77.4686 65.0391 80.4869 64.826 82.4991 66.5572Z" fill="#F2CD30"/>
<path d="M81.8105 67.3562C83.3726 68.7145 83.5315 71.0849 82.1812 72.6563C80.8309 74.2276 78.4745 74.3875 76.9125 73.0291C75.3504 71.6708 75.1915 69.3005 76.5418 67.7291C77.8921 66.1577 80.2484 65.9979 81.8105 67.3562Z" fill="#EAA00E"/>
<path d="M81.6784 67.8621C83.1346 69.1405 83.2935 71.3778 82.0226 72.8426C80.7518 74.3075 78.5278 74.4673 77.0716 73.1888C75.6154 71.9104 75.4565 69.6732 76.7274 68.2084C77.9982 66.7169 80.2222 66.5837 81.6784 67.8621Z" fill="#F1B633"/>
<path d="M80.8047 68.7944V68.7411C80.8047 68.6346 80.7253 68.5547 80.6194 68.5547H78.0777C77.9983 68.5547 77.9453 68.608 77.9453 68.6879V69.114C77.9453 69.1939 78.0247 69.2738 78.1042 69.2738H78.1306C78.4219 69.2738 78.6337 69.3271 78.7926 69.407C78.872 69.4602 78.9249 69.5401 78.9779 69.62H78.1571C78.0512 69.62 77.9718 69.6999 77.9718 69.8065V69.8864C77.9718 69.9929 78.0512 70.0728 78.1571 70.0728H78.9779C78.9514 70.1527 78.8985 70.2326 78.819 70.2859C78.6866 70.3924 78.4748 70.419 78.1836 70.419H78.1571C78.0512 70.419 77.9718 70.4989 77.9718 70.6055V70.9517C77.9718 71.0582 78.0512 71.1381 78.1571 71.1381H78.3689L79.3486 72.7095C79.375 72.7628 79.4544 72.8161 79.5074 72.8161H80.0369C80.1958 72.8161 80.3017 72.6296 80.1958 72.4965C79.9575 72.1502 79.6133 71.6175 79.1367 70.9251C79.4015 70.8185 79.5868 70.6587 79.7192 70.4723C79.7986 70.3391 79.8781 70.206 79.9045 70.0728H80.6459C80.7518 70.0728 80.8312 69.9929 80.8312 69.8864V69.8065C80.8312 69.6999 80.7518 69.62 80.6459 69.62H79.931C79.9045 69.3537 79.8251 69.1673 79.6663 68.9808H80.6459C80.7253 69.0075 80.8047 68.9276 80.8047 68.7944Z" fill="#FFECCC"/>
</g>
<defs>
<clipPath id="clip0_605_754">
<rect width="100" height="75" fill="white"/>
</clipPath>
</defs>
</svg>
