<svg width="27" height="23" viewBox="0 0 27 23" fill="none" xmlns="http://www.w3.org/2000/svg">
<path d="M20.9454 16.9059C20.8627 16.7118 20.6723 16.5863 20.4603 16.5863C20.3891 16.5863 20.3195 16.6006 20.2536 16.6285L15.8655 18.5059C15.7358 18.5613 15.6357 18.6636 15.5834 18.7943C15.5312 18.9251 15.5328 19.0686 15.5882 19.1978C15.6715 19.3923 15.8619 19.5178 16.0733 19.5178C16.1445 19.5178 16.2141 19.5036 16.2806 19.4756L20.6681 17.5983C20.9354 17.4838 21.0599 17.1732 20.9454 16.9059Z" fill="#219653"/>
<path d="M12.4017 18.5065L8.01424 16.6297C7.94779 16.6012 7.87818 16.5869 7.80699 16.5869C7.59552 16.5869 7.40515 16.7125 7.32183 16.907C7.2074 17.1744 7.33185 17.485 7.59922 17.5994L11.9872 19.4762C12.0532 19.5047 12.1228 19.519 12.194 19.519H12.1945C12.406 19.519 12.5963 19.3935 12.6791 19.1989C12.7936 18.9315 12.6691 18.6209 12.4017 18.5065Z" fill="#219653"/>
<path d="M14.6188 19.6128C14.5355 19.4187 14.3451 19.2927 14.1337 19.2927C14.0625 19.2927 13.9929 19.307 13.9264 19.3354C13.659 19.4499 13.5345 19.7605 13.649 20.0278C13.7323 20.222 13.9227 20.3479 14.1341 20.3479C14.2054 20.3479 14.2755 20.3332 14.3414 20.3052C14.6087 20.1908 14.7332 19.8801 14.6188 19.6128Z" fill="#219653"/>
<path d="M9.91406 9.49219C9.62286 9.49219 9.38672 9.72833 9.38672 10.0195V14.2383C9.38672 14.5295 9.62286 14.7656 9.91406 14.7656C10.2053 14.7656 10.4414 14.5295 10.4414 14.2383V10.0195C10.4414 9.72833 10.2053 9.49219 9.91406 9.49219Z" fill="#219653"/>
<path d="M13.0781 9.49219H12.0234C11.7322 9.49219 11.4961 9.72833 11.4961 10.0195V14.2383C11.4961 14.5295 11.7322 14.7656 12.0234 14.7656C12.3146 14.7656 12.5508 14.5295 12.5508 14.2383V12.6562H13.0781C13.9505 12.6562 14.6602 11.9466 14.6602 11.0742C14.6602 10.2019 13.9505 9.49219 13.0781 9.49219ZM13.0781 11.6016H12.5508V10.5469H13.0781C13.3689 10.5469 13.6055 10.7834 13.6055 11.0742C13.6055 11.365 13.3689 11.6016 13.0781 11.6016Z" fill="#219653"/>
<path d="M17.2969 9.49219C16.4245 9.49219 15.7148 10.2019 15.7148 11.0742V13.1836C15.7148 14.0559 16.4245 14.7656 17.2969 14.7656C18.1692 14.7656 18.8789 14.0559 18.8789 13.1836V11.0742C18.8789 10.2019 18.1692 9.49219 17.2969 9.49219ZM17.8242 13.1836C17.8242 13.4744 17.5877 13.7109 17.2969 13.7109C17.0061 13.7109 16.7695 13.4744 16.7695 13.1836V11.0742C16.7695 10.7834 17.0061 10.5469 17.2969 10.5469C17.5877 10.5469 17.8242 10.7834 17.8242 11.0742V13.1836Z" fill="#219653"/>
<path d="M26.4727 0H0.527344C0.236145 0 0 0.236145 0 0.527344V2.63672C0 2.92792 0.236145 3.16406 0.527344 3.16406H5.16797V4.30945C4.55419 4.52714 4.11328 5.11328 4.11328 5.80078C4.11328 6.48828 4.55419 7.07442 5.16797 7.29211V18.457C5.16797 18.6665 5.292 18.8562 5.48395 18.9401L13.9215 22.6315C13.9888 22.6611 14.0608 22.6758 14.1328 22.6758C14.2048 22.6758 14.2768 22.6611 14.3442 22.6315L22.7817 18.9401C22.9737 18.8562 23.0977 18.6665 23.0977 18.457V7.29211C23.7114 7.07442 24.1523 6.48828 24.1523 5.80078C24.1523 5.11328 23.7114 4.52714 23.0977 4.30945V3.16406H26.4727C26.7639 3.16406 27 2.92792 27 2.63672V0.527344C27 0.236145 26.7639 0 26.4727 0ZM5.69531 6.32812C5.40454 6.32812 5.16797 6.09156 5.16797 5.80078C5.16797 5.51 5.40454 5.27344 5.69531 5.27344C5.98609 5.27344 6.22266 5.51 6.22266 5.80078C6.22266 6.09156 5.98609 6.32812 5.69531 6.32812ZM22.043 18.1121L14.1328 21.5728L6.22266 18.1121V7.29211C6.67137 7.13296 7.02749 6.77684 7.18664 6.32812H21.079C21.2381 6.77684 21.5943 7.13296 22.043 7.29211V18.1121ZM6.22266 4.31024V3.16406H22.043V4.31024C21.5945 4.4695 21.2381 4.82483 21.079 5.27344H7.18664C7.02754 4.82483 6.67116 4.4695 6.22266 4.31024ZM22.5703 6.32812C22.2795 6.32812 22.043 6.09156 22.043 5.80078C22.043 5.51 22.2795 5.27344 22.5703 5.27344C22.8611 5.27344 23.0977 5.51 23.0977 5.80078C23.0977 6.09156 22.8611 6.32812 22.5703 6.32812ZM25.9453 2.10938H1.05469V1.05469H25.9453V2.10938Z" fill="#219653"/>
<path d="M20.4609 7.38281H7.80469C7.51349 7.38281 7.27734 7.61896 7.27734 7.91016C7.27734 8.20136 7.51349 8.4375 7.80469 8.4375H20.4609C20.7521 8.4375 20.9883 8.20136 20.9883 7.91016C20.9883 7.61896 20.7521 7.38281 20.4609 7.38281Z" fill="#219653"/>
</svg>
