<svg width="24" height="24" viewBox="0 0 24 24" fill="none" xmlns="http://www.w3.org/2000/svg">
<path d="M11.6402 1.14003C11.6402 1.54803 11.6282 1.56003 11.1722 1.56003C9.20422 1.56003 6.45622 2.79603 4.70422 4.48803C2.94022 6.16803 1.56021 9.12003 1.56021 11.172C1.56021 11.628 1.54821 11.64 1.14021 11.64C0.756215 11.64 0.720215 11.664 0.720215 12C0.720215 12.336 0.756215 12.36 1.14021 12.36C1.54821 12.36 1.56021 12.372 1.56021 12.828C1.56021 14.952 2.98821 17.904 4.84822 19.632C6.58822 21.264 9.25222 22.44 11.1722 22.44C11.6282 22.44 11.6402 22.452 11.6402 22.86C11.6402 23.244 11.6642 23.28 12.0002 23.28C12.3362 23.28 12.3602 23.244 12.3602 22.86C12.3602 22.452 12.3722 22.44 12.8282 22.44C14.0522 22.44 15.9602 21.828 17.4602 20.952C18.5642 20.304 20.3042 18.564 20.9522 17.46C21.8282 15.96 22.4402 14.052 22.4402 12.828C22.4402 12.372 22.4522 12.36 22.8602 12.36C23.2442 12.36 23.2802 12.336 23.2802 12C23.2802 11.664 23.2442 11.64 22.8602 11.64C22.4522 11.64 22.4402 11.628 22.4402 11.172C22.4402 9.25203 21.2642 6.58803 19.6322 4.84803C17.9042 2.98803 14.9522 1.56003 12.8282 1.56003C12.3722 1.56003 12.3602 1.54803 12.3602 1.14003C12.3602 0.756027 12.3362 0.720028 12.0002 0.720028C11.6642 0.720028 11.6402 0.756027 11.6402 1.14003ZM11.6402 2.80803V3.34803L11.0762 3.42003C8.95222 3.72003 7.14022 4.60803 5.79622 6.03603C4.45222 7.45203 3.70821 9.04803 3.42022 11.064L3.34822 11.64H2.79622H2.24422L2.32822 10.824C2.43622 9.75603 3.01222 8.05203 3.62422 7.03203C4.24822 5.96403 5.58022 4.58403 6.63622 3.87603C7.92022 3.02403 9.94822 2.31603 11.1962 2.29203L11.6402 2.28003V2.80803ZM15.0602 2.77203C15.6602 2.97603 16.5122 3.34803 16.9562 3.61203C17.8682 4.16403 19.2362 5.38803 19.8482 6.22803C20.7602 7.47603 21.5282 9.40803 21.6722 10.86L21.7562 11.64H21.2042H20.6522L20.5802 11.064C20.2922 9.04803 19.5482 7.45203 18.2042 6.03603C16.8602 4.60803 15.0482 3.72003 12.9362 3.42003L12.3602 3.34803V2.79603V2.24403L13.1762 2.32803C13.6202 2.37603 14.4722 2.58003 15.0602 2.77203ZM11.6402 4.74003C11.6402 5.25603 11.6522 5.28003 12.0002 5.28003C12.3482 5.28003 12.3602 5.25603 12.3602 4.74003C12.3602 4.21203 12.3722 4.20003 12.7562 4.20003C13.4762 4.20003 14.6642 4.56003 15.6482 5.06403C17.1002 5.82003 18.2882 7.05603 18.9962 8.53203C19.5242 9.63603 19.8002 10.572 19.8002 11.28C19.8002 11.628 19.7762 11.64 19.2602 11.64C18.7442 11.64 18.7202 11.652 18.7202 12C18.7202 12.348 18.7442 12.36 19.2602 12.36C19.7882 12.36 19.8002 12.372 19.8002 12.756C19.8002 13.416 19.4642 14.532 18.9362 15.6C18.2522 17.016 17.0162 18.252 15.6002 18.936C14.5322 19.464 13.4162 19.8 12.7562 19.8C12.3722 19.8 12.3602 19.788 12.3602 19.26C12.3602 18.744 12.3482 18.72 12.0002 18.72C11.6522 18.72 11.6402 18.744 11.6402 19.26C11.6402 19.776 11.6282 19.8 11.2802 19.8C10.5722 19.8 9.63622 19.524 8.53222 18.996C7.05622 18.288 5.82022 17.1 5.06422 15.648C4.56022 14.664 4.20022 13.476 4.20022 12.744C4.20022 12.372 4.21222 12.36 4.74022 12.36C5.25622 12.36 5.28022 12.348 5.28022 12C5.28022 11.652 5.25622 11.64 4.74022 11.64C4.21222 11.64 4.20022 11.628 4.20022 11.244C4.20022 10.524 4.56022 9.33603 5.06422 8.35203C6.24022 6.09603 8.95222 4.26003 11.1962 4.21203L11.6402 4.20003V4.74003ZM3.42022 12.924C3.72022 15.048 4.60822 16.86 6.03622 18.204C7.45222 19.548 9.04822 20.292 11.0762 20.58L11.6402 20.652V21.204V21.756L10.8602 21.672C9.40822 21.528 7.47622 20.76 6.22822 19.848C5.37622 19.224 4.15222 17.868 3.61222 16.944C3.00022 15.9 2.43622 14.232 2.32822 13.164L2.24422 12.36H2.79622H3.34822L3.42022 12.924ZM21.7202 12.744C21.7082 13.824 21.0842 15.756 20.3162 17.076C19.8362 17.892 18.5882 19.26 17.7722 19.848C16.5242 20.76 14.5922 21.528 13.1402 21.672L12.3602 21.756V21.204V20.652L12.9362 20.58C15.5762 20.208 17.7722 18.876 19.1282 16.812C19.9442 15.564 20.3642 14.448 20.5802 12.924L20.6522 12.36H21.1922C21.7082 12.36 21.7202 12.372 21.7202 12.744Z" fill="#4E8AD0"/>
<path d="M15.3603 7.50002C15.3603 7.66802 14.8683 10.62 14.8083 10.788C14.7723 10.896 14.5443 10.656 14.2083 10.152C13.8483 9.62402 13.5963 9.36002 13.4643 9.38402C13.3563 9.40802 12.7203 10.284 12.0483 11.34C11.3763 12.396 10.7643 13.272 10.6803 13.296C10.6083 13.32 10.2003 13.2 9.78033 13.032C9.36033 12.864 8.94033 12.756 8.85633 12.792C8.71233 12.852 6.58833 15.288 6.50433 15.48C6.49233 15.528 6.60033 15.648 6.76833 15.756C7.05633 15.948 7.06833 15.948 8.08833 14.76L9.12033 13.572L9.98433 13.932C10.4643 14.124 10.9083 14.268 10.9803 14.232C11.0643 14.208 11.5443 13.512 12.0603 12.696C12.5763 11.892 13.1163 11.04 13.2603 10.824L13.5243 10.44L14.1603 11.4C14.7483 12.3 15.0963 12.564 15.2883 12.264C15.3723 12.12 16.1163 7.68002 16.0683 7.62002C15.9723 7.52402 15.3603 7.41602 15.3603 7.50002Z" fill="#4E8AD0"/>
<path d="M6.80421 16.524C6.75621 16.56 6.72021 16.752 6.72021 16.944V17.28H12.0122H17.2922L17.2562 16.884L17.2202 16.5L12.0482 16.464C9.20421 16.452 6.84021 16.476 6.80421 16.524Z" fill="#4E8AD0"/>
</svg>
