<svg width="15" height="16" viewBox="0 0 15 16" fill="none" xmlns="http://www.w3.org/2000/svg">
<path d="M11.7614 5.20074C11.7614 4.08664 11.3078 3.01816 10.5006 2.23037C9.69332 1.44258 8.59845 1 7.45681 1C6.31518 1 5.2203 1.44258 4.41304 2.23037C3.60578 3.01816 3.15227 4.08664 3.15227 5.20074C3.15227 10.1016 1 11.5019 1 11.5019H13.9136C13.9136 11.5019 11.7614 10.1016 11.7614 5.20074Z" stroke="#172B4D" stroke-width="2" stroke-linecap="round" stroke-linejoin="round"/>
<path d="M8.69798 14.3024C8.57185 14.5146 8.39081 14.6907 8.17299 14.8131C7.95517 14.9356 7.70821 15 7.45684 15C7.20547 15 6.95851 14.9356 6.74069 14.8131C6.52287 14.6907 6.34183 14.5146 6.2157 14.3024" stroke="#172B4D" stroke-width="2" stroke-linecap="round" stroke-linejoin="round"/>
<path d="M12.9668 4.87761C14.0897 4.87761 15 4.00958 15 2.93881C15 1.86803 14.0897 1 12.9668 1C11.8439 1 10.9336 1.86803 10.9336 2.93881C10.9336 4.00958 11.8439 4.87761 12.9668 4.87761Z" fill="#FE0D0D"/>
<path d="M12.9668 4.45807C13.8467 4.45807 14.5601 3.77787 14.5601 2.9388C14.5601 2.09973 13.8467 1.41953 12.9668 1.41953C12.0869 1.41953 11.3735 2.09973 11.3735 2.9388C11.3735 2.9388 12.0869 4.45807 12.9668 4.45807Z" stroke="white" stroke-width="0.639755"/>
</svg>
