<svg width="17" height="19" viewBox="0 0 17 19" fill="none" xmlns="http://www.w3.org/2000/svg">
<path d="M14.3333 8.65002H2.66667C1.74619 8.65002 1 9.41114 1 10.35V16.3C1 17.2389 1.74619 18 2.66667 18H14.3333C15.2538 18 16 17.2389 16 16.3V10.35C16 9.41114 15.2538 8.65002 14.3333 8.65002Z" stroke="#9B9797" stroke-width="2" stroke-linecap="round" stroke-linejoin="round"/>
<path d="M4.33337 8.65V5.25C4.33337 4.12283 4.77236 3.04183 5.55376 2.2448C6.33516 1.44777 7.39497 1 8.50004 1C9.60511 1 10.6649 1.44777 11.4463 2.2448C12.2277 3.04183 12.6667 4.12283 12.6667 5.25V8.65" stroke="#9B9797" stroke-width="2" stroke-linecap="round" stroke-linejoin="round"/>
</svg>
