<svg width="275" height="228" viewBox="0 0 275 228" fill="none" xmlns="http://www.w3.org/2000/svg">
<path d="M159.319 30.2564C141.739 29.6453 124.997 23.9717 109.009 17.763C93.0221 11.5543 77.1868 4.67472 60.0287 1.38568C48.9928 -0.730062 36.3707 -1.02882 27.4807 4.88656C18.922 10.5901 16.1569 20.4083 14.6712 29.5286C13.5521 36.3891 12.8948 43.6109 15.9587 50.0314C18.0881 54.491 21.8636 58.2391 24.4766 62.5113C33.5676 77.3731 27.1412 95.7004 17.2923 110.212C12.6748 117.021 7.31035 123.52 3.74401 130.761C0.177668 138.002 -1.47105 146.31 1.64984 153.703C4.74085 161.036 12.1098 166.533 20.0927 170.403C36.3056 178.266 55.403 180.515 74.0387 181.789C115.278 184.61 156.735 183.388 198.084 182.166C213.387 181.712 228.755 181.253 243.808 178.888C252.168 177.573 260.798 175.49 266.868 170.455C274.571 164.064 276.481 153.244 271.317 145.229C262.658 131.788 238.723 128.45 232.663 114.025C229.333 106.084 232.753 97.2404 237.596 89.8747C247.983 74.0786 265.391 60.219 266.306 42.1632C266.936 29.7621 258.568 17.342 245.628 11.4728C232.066 5.32383 213.256 6.09517 203.255 16.2773C192.948 26.761 174.842 30.7942 159.319 30.2564Z" fill="#E0E9F8"/>
<path d="M131.568 223.059C177.146 223.059 214.094 218.101 214.094 211.985C214.094 205.87 177.146 200.912 131.568 200.912C85.9895 200.912 49.041 205.87 49.041 211.985C49.041 218.101 85.9895 223.059 131.568 223.059Z" fill="#E0E9F8"/>
<rect x="174.545" y="79.0991" width="2.63664" height="19.5111" rx="1.31832" fill="#99B9EE"/>
<rect x="94.9189" y="63.2792" width="1.05465" height="6.32792" rx="0.527327" fill="#3A3768"/>
<rect x="94.9189" y="74.8804" width="1.05465" height="11.0739" rx="0.527327" fill="#3A3768"/>
<rect x="94.9189" y="90.1729" width="1.05465" height="11.6012" rx="0.527327" fill="#3A3768"/>
<rect x="94.9189" y="41.6588" width="80.681" height="162.944" rx="12" fill="#99B9EE"/>
<path d="M164.452 45.8774H155.205V46.9878C155.205 48.3837 154.65 49.7224 153.661 50.7092C152.672 51.696 151.33 52.25 149.932 52.2493H120.524C119.126 52.25 117.785 51.696 116.796 50.7092C115.807 49.7224 115.251 48.3837 115.251 46.9878V45.8774H106.594C103.059 45.8774 100.192 48.7387 100.192 52.2683V194.521C100.192 196.216 100.867 197.841 102.067 199.04C103.268 200.238 104.896 200.912 106.594 200.912H164.452C167.988 200.912 170.854 198.05 170.854 194.521V52.2792C170.857 50.5823 170.184 48.954 168.983 47.7531C167.782 46.5523 166.152 45.8774 164.452 45.8774Z" fill="#F7F7F7"/>
<rect x="127.613" y="46.4048" width="11.0739" height="2.63664" rx="1.31832" fill="#E6E8EC"/>
<path d="M141.587 49.0414C142.315 49.0414 142.905 48.4512 142.905 47.7231C142.905 46.995 142.315 46.4048 141.587 46.4048C140.859 46.4048 140.269 46.995 140.269 47.7231C140.269 48.4512 140.859 49.0414 141.587 49.0414Z" fill="#E6E8EC"/>
<path d="M203.65 34.3063C203.65 34.3063 181.067 32.9125 183.728 49.1005C183.728 49.1005 183.191 51.9622 185.734 53.26C185.734 53.26 185.774 52.061 188.051 52.4698C188.862 52.6073 189.685 52.6478 190.505 52.5905C191.611 52.5162 192.663 52.0761 193.504 51.3367C193.504 51.3367 199.852 48.6533 202.319 38.0405C202.319 38.0405 204.146 35.7248 204.073 35.1294L200.262 36.7949C200.262 36.7949 201.566 39.6072 200.53 41.9449C200.53 41.9449 200.407 36.8964 199.675 37.0062C199.527 37.0281 197.696 37.9802 197.696 37.9802C197.696 37.9802 199.935 42.8777 198.245 46.4391C198.245 46.4391 198.886 40.4029 196.996 38.3341L194.314 39.9365C194.314 39.9365 196.931 44.9959 195.156 49.1252C195.156 49.1252 195.612 42.7927 193.748 40.3261L191.318 42.2659C191.318 42.2659 193.777 47.2512 192.278 50.6754C192.278 50.6754 192.082 43.3058 190.792 42.7488C190.792 42.7488 188.665 44.6694 188.341 45.4541C188.341 45.4541 190.025 49.0758 188.979 50.9855C188.979 50.9855 188.338 46.0742 187.812 46.0468C187.812 46.0468 185.694 49.3008 185.474 51.5342C185.474 51.5342 185.565 48.217 187.3 45.7395C187.3 45.7395 185.251 46.0989 184.055 47.457C184.055 47.457 184.385 45.1578 187.823 44.9547C187.823 44.9547 189.574 42.4854 190.041 42.3372C190.041 42.3372 186.624 42.0436 184.551 42.9847C184.551 42.9847 186.375 40.8145 190.669 41.8022L193.069 39.7965C193.069 39.7965 188.569 39.1682 186.659 39.8624C186.659 39.8624 188.856 37.9418 193.715 39.3411L196.328 37.7442C196.328 37.7442 192.49 36.8992 190.205 37.1955C190.205 37.1955 192.619 35.8648 197.095 37.308L198.972 36.4492C198.972 36.4492 196.161 35.884 195.338 35.7934C194.515 35.7029 194.472 35.4724 194.472 35.4724C196.253 35.1686 198.081 35.3767 199.753 36.0733C199.753 36.0733 203.717 34.5615 203.65 34.3063Z" fill="#99B9EE"/>
<path d="M180.147 26.907C180.147 26.907 169.736 26.2891 170.952 33.4826C170.952 33.4826 170.709 34.7535 171.878 35.3309C171.878 35.3309 171.898 34.7913 172.95 34.9774C173.323 35.0394 173.703 35.0575 174.081 35.0314C174.592 34.9981 175.078 34.801 175.465 34.4702C175.465 34.4702 178.396 33.2775 179.536 28.561C179.536 28.561 180.377 27.533 180.344 27.2685L178.586 28.0078C178.586 28.0078 179.186 29.2571 178.714 30.296C178.714 30.296 178.657 28.0537 178.32 28.105C178.251 28.105 177.405 28.5394 177.405 28.5394C177.405 28.5394 178.44 30.7169 177.659 32.2981C177.659 32.2981 177.955 29.616 177.081 28.6959L175.843 29.419C175.843 29.419 177.051 31.6667 176.232 33.5015C176.232 33.5015 176.443 30.6872 175.583 29.5917L174.462 30.4552C174.462 30.4552 175.596 32.6704 174.906 34.1922C174.906 34.1922 174.813 30.9166 174.218 30.6683C174.218 30.6683 173.237 31.521 173.087 31.8717C173.087 31.8717 173.865 33.4907 173.383 34.3299C173.383 34.3299 173.087 32.147 172.835 32.1362C172.835 32.1362 171.857 33.5824 171.755 34.5646C171.804 33.6488 172.095 32.7615 172.599 31.9905C172.035 32.0958 171.514 32.3612 171.1 32.7541C171.1 32.7541 171.254 31.7314 172.84 31.6424C172.84 31.6424 173.662 30.5442 173.865 30.4767C173.865 30.4767 172.287 30.3472 171.33 30.7655C171.33 30.7655 172.172 29.8022 174.152 30.2393L175.248 29.3489C175.248 29.3489 173.169 29.0791 172.289 29.3786C172.289 29.3786 173.303 28.5259 175.547 29.1465L176.753 28.4369C176.753 28.4369 174.98 28.0618 173.925 28.1967C173.925 28.1967 175.04 27.6058 177.106 28.2453L177.969 27.8648C177.969 27.8648 176.67 27.6139 176.29 27.5734C175.909 27.533 175.89 27.4304 175.89 27.4304C176.712 27.2957 177.556 27.3891 178.328 27.7002C178.328 27.7002 180.18 27.0203 180.147 26.907Z" fill="#99B9EE"/>
<path d="M234.661 210.931C238.738 210.931 242.043 210.341 242.043 209.613C242.043 208.884 238.738 208.294 234.661 208.294C230.584 208.294 227.278 208.884 227.278 209.613C227.278 210.341 230.584 210.931 234.661 210.931Z" fill="#E0E9F8"/>
<path d="M24.2566 220.95C28.3339 220.95 31.6392 220.36 31.6392 219.632C31.6392 218.904 28.3339 218.313 24.2566 218.313C20.1793 218.313 16.874 218.904 16.874 219.632C16.874 220.36 20.1793 220.95 24.2566 220.95Z" fill="#E0E9F8"/>
<path d="M52.7332 227.805C56.8104 227.805 60.1157 227.215 60.1157 226.487C60.1157 225.759 56.8104 225.169 52.7332 225.169C48.6559 225.169 45.3506 225.759 45.3506 226.487C45.3506 227.215 48.6559 227.805 52.7332 227.805Z" fill="#E0E9F8"/>
<path d="M218.049 224.641C224.02 224.641 228.86 223.815 228.86 222.796C228.86 221.776 224.02 220.95 218.049 220.95C212.079 220.95 207.239 221.776 207.239 222.796C207.239 223.815 212.079 224.641 218.049 224.641Z" fill="#99B9EE"/>
<path d="M223.049 220.274C223.542 219.859 223.901 219.301 224.079 218.673C224.214 218.04 223.95 217.29 223.358 217.044C222.696 216.784 221.988 217.257 221.453 217.733C220.917 218.208 220.301 218.753 219.599 218.651C220.334 217.967 220.666 216.938 220.473 215.938C220.442 215.735 220.357 215.544 220.228 215.385C219.862 214.982 219.195 215.153 218.756 215.474C217.357 216.483 216.967 218.438 216.959 220.194C216.816 219.56 216.937 218.9 216.932 218.258C216.926 217.617 216.757 216.876 216.221 216.536C215.891 216.353 215.52 216.264 215.145 216.276C214.515 216.251 213.815 216.317 213.385 216.79C212.847 217.376 212.992 218.36 213.455 219.002C213.918 219.643 214.625 220.055 215.277 220.501C215.798 220.82 216.242 221.255 216.576 221.775C216.617 221.848 216.649 221.925 216.673 222.005H220.605C221.492 221.543 222.314 220.961 223.049 220.274Z" fill="#99B9EE"/>
<path d="M53.1063 196.166C53.1063 196.166 54.5847 198.198 52.4262 201.254C50.2677 204.31 48.4882 206.908 49.2006 208.821C49.2006 208.821 52.4585 203.125 55.1143 203.046C57.7701 202.967 56.0228 199.592 53.1063 196.166Z" fill="#99B9EE"/>
<path opacity="0.1" d="M53.0646 196.166C53.195 196.362 53.2975 196.577 53.3691 196.804C55.9844 199.996 57.3791 202.977 54.8643 203.05C52.5236 203.121 49.7152 207.471 49.041 208.57C49.0628 208.655 49.09 208.737 49.1199 208.821C49.1199 208.821 52.4148 203.129 55.1009 203.05C57.7869 202.971 56.0143 199.59 53.0646 196.166Z" fill="black"/>
<path d="M56.4238 198.688C56.4238 199.334 56.3066 199.857 56.1601 199.857C56.0137 199.857 55.8965 199.334 55.8965 198.688C55.8965 198.043 56.043 198.346 56.1894 198.346C56.3359 198.346 56.4238 198.043 56.4238 198.688Z" fill="#FFD037"/>
<path d="M57.1036 199.335C56.4848 199.706 55.9441 199.93 55.8995 199.835C55.8549 199.74 56.3148 199.363 56.9335 198.992C57.5523 198.621 57.3098 198.891 57.3544 198.992C57.399 199.093 57.7223 198.964 57.1036 199.335Z" fill="#FFD037"/>
<path d="M45.5052 196.166C45.5052 196.166 44.0272 198.198 46.185 201.254C48.3428 204.31 50.1217 206.908 49.4096 208.821C49.4096 208.821 46.1555 203.125 43.4979 203.046C40.8403 202.967 42.5842 199.592 45.5052 196.166Z" fill="#99B9EE"/>
<path opacity="0.1" d="M45.5479 196.166C45.4172 196.362 45.3139 196.577 45.2409 196.804C42.6272 199.996 41.2361 202.977 43.7466 203.05C46.0886 203.121 48.8953 207.471 49.5691 208.57C49.5468 208.656 49.5196 208.739 49.4876 208.821C49.4876 208.821 46.1973 203.129 43.5102 203.05C40.8231 202.971 42.5946 199.59 45.5479 196.166Z" fill="#99B9EE"/>
<path d="M42.7139 198.688C42.7139 199.334 42.8343 199.857 42.9796 199.857C43.1249 199.857 43.2412 199.334 43.2412 198.688C43.2412 198.043 43.0959 198.346 42.9505 198.346C42.8052 198.346 42.7139 198.043 42.7139 198.688Z" fill="#FFD037"/>
<path d="M42.0357 199.335C42.6535 199.706 43.1905 199.93 43.2378 199.835C43.2852 199.74 42.8205 199.363 42.2027 198.992C41.585 198.621 41.8298 198.891 41.7825 198.992C41.7352 199.093 41.418 198.964 42.0357 199.335Z" fill="#FFD037"/>
<path d="M43.2412 207.921C43.2412 207.921 47.3503 207.79 48.5916 206.893C49.8329 205.996 54.9131 204.92 55.2181 206.362C55.523 207.804 61.3951 213.528 56.7563 213.566C52.1175 213.604 45.9753 212.83 44.7393 212.064C43.5034 211.298 43.2412 207.921 43.2412 207.921Z" fill="#99B9EE"/>
<path opacity="0.2" d="M56.8391 213.056C52.1994 213.096 46.056 212.3 44.8199 211.514C43.8807 210.911 43.5034 208.758 43.3777 207.767H43.2412C43.2412 207.767 43.5088 211.233 44.7369 212.023C45.9651 212.813 52.1165 213.605 56.7561 213.566C58.094 213.566 58.5569 213.056 58.5328 212.317C58.3455 212.771 57.8345 213.048 56.8391 213.056Z" fill="black"/>
<g opacity="0.1">
<path d="M94.1709 105.168C95.7949 104.617 97.4613 104.199 99.1535 103.917L99.1753 103.664C97.4705 104.036 95.7974 104.539 94.1709 105.168H94.1709Z" fill="black"/>
</g>
<path d="M136.05 140.796C144.496 140.796 151.343 133.95 151.343 125.504C151.343 117.058 144.496 110.211 136.05 110.211C127.604 110.211 120.758 117.058 120.758 125.504C120.758 133.95 127.604 140.796 136.05 140.796Z" fill="white"/>
<path fill-rule="evenodd" clip-rule="evenodd" d="M143.556 141.887C151.142 138.745 156.089 131.342 156.089 123.131C156.089 111.918 146.999 102.829 135.787 102.829C127.575 102.829 120.173 107.775 117.03 115.361C113.888 122.948 115.625 131.68 121.431 137.486C127.237 143.292 135.97 145.029 143.556 141.887ZM148.5 118.818L133.441 133.877V133.888C133.195 134.134 132.862 134.273 132.514 134.273C132.167 134.273 131.833 134.134 131.588 133.888L123.073 125.376C122.563 124.864 122.563 124.036 123.073 123.523L124.926 121.66C125.439 121.15 126.267 121.15 126.779 121.66L132.514 127.408L144.797 115.125C145.042 114.879 145.375 114.741 145.722 114.741C146.069 114.741 146.402 114.879 146.647 115.125L148.5 116.965C148.747 117.21 148.885 117.544 148.885 117.891C148.885 118.239 148.747 118.572 148.5 118.818Z" fill="#3ACC6C"/>
<path d="M57.5251 85.1623C58.5817 80.3016 62.6349 76.8112 67.38 76.9269C68.4745 74.3797 70.5989 72.2775 73.0949 71.3054C78.0179 69.3878 85.1722 70.3154 85.7506 75.7901C88.2332 79.1315 89.043 84.3481 86.418 87.616C88.1554 92.3655 84.2735 97.8536 78.336 98.63C76.7588 102.401 73.1461 105.241 69.1774 105.397C68.2253 105.435 66.7638 105.426 66.5346 105.524C66.8238 105.422 60.9732 111.573 54.3127 104.63C47.5144 97.5444 50.1439 87.2223 57.5251 85.1623Z" fill="#0B0754"/>
<path d="M90.0019 88.3568C90.0019 88.3568 106.224 80.5284 106.304 80.2103C106.419 79.7476 100.822 73.6189 97.8948 73.1161C95.6502 72.7313 92.8961 70.5423 92.8961 70.5423C92.8961 70.5423 95.8882 67.0942 98.7357 67.6637C101.583 68.2332 101.398 70.5645 101.398 70.5645C101.398 70.5645 109.035 74.68 113.474 78.7221C117.682 82.5551 95.3187 93.1018 95.3187 93.1018L90.0019 88.3568Z" fill="#FB9390"/>
<path d="M98.5419 172.09C97.8478 175.839 96.6666 179.138 96.5042 179.525C96.4263 179.712 95.6833 180.392 95.5966 180.584C95.9948 185.155 98.9089 187.871 101.645 189.807C101.051 187.502 99.732 184.857 99.9011 184.343C100.173 183.527 101.229 179.801 103.48 175.116C101.207 174.862 100.395 173.478 98.5419 172.09Z" fill="#FB9390"/>
<path d="M88.6152 117.697L74.4067 128.488C74.4067 128.488 81.4409 135.255 84.0815 137.771C86.7221 140.287 101.507 149.927 101.736 150.501C101.907 150.928 100.425 156.338 97.0285 173.661C98.5301 175.196 101.838 176.7 103.796 177.198C108.721 167.797 112.576 148.512 112.576 146.332C112.578 142.786 88.6152 117.697 88.6152 117.697Z" fill="#0B4870"/>
<path d="M48.7593 139.226C49.2243 139.68 52.3075 145.687 53.4821 148.903C55.1995 147.822 56.2384 146.532 58.1582 145.804C56.6433 143.613 53.6912 138.339 53.4487 137.084C52.8726 134.108 52.1963 133.667 52.1963 133.667C52.1963 133.667 42.2146 137.044 41.5494 137.992C40.8843 138.939 46.8929 137.407 48.7593 139.226Z" fill="#FB9390"/>
<path d="M53.5654 137.747C54.3396 137.749 53.4987 134.248 53.3207 133.442C53.1205 132.535 52.5955 132.263 52.4643 132.23C52.1106 132.143 41.0166 135.896 39.1412 137.244C39.0144 137.335 38.7875 137.625 38.7519 137.689C37.7242 139.605 46.8717 139.969 48.1864 139.131C49.3588 138.388 50.0817 137.736 53.5654 137.747Z" fill="#0B0754"/>
<path d="M91.6523 120.882C91.6523 120.882 78.2626 115.61 78.0891 116.171C76.7031 120.636 71.7957 119.196 69.2352 127.062C68.163 130.357 67.9116 139.051 67.1886 145.5C66.6925 149.931 65.9962 153.481 65.9962 153.481C65.9962 153.481 62.8974 149.831 57.0623 143.257C56.6107 142.748 51.899 146.294 51.899 146.294C61.1911 164.72 68.0317 167.476 69.4532 166.825C79.0568 162.418 86.9162 129.418 86.9006 129.423C87.9907 127.294 91.6523 120.882 91.6523 120.882Z" fill="#0B4870"/>
<path d="M70.9854 89.6626C70.9854 89.6626 55.0017 89.6426 51.5781 89.4446C48.4814 89.2667 36.195 89.5781 35.7145 89.5225C35.234 89.4669 32.0596 84.09 31.5301 84.6662C31.0029 85.2446 33.2964 87.3335 32.5868 87.874C31.8771 88.4168 24.2535 87.2022 24.3536 87.765C24.5427 88.8195 28.9918 88.686 28.9874 89.1955C28.9829 89.7049 24.3313 88.9107 24.0155 89.7561C23.6996 90.6014 28.4891 90.1009 28.6804 90.4768C28.8717 90.855 24.2379 91.5446 24.7118 92.3299C24.9698 92.757 28.8161 91.6158 28.7983 92.1987C28.7805 92.7815 25.9731 94.1051 26.3157 94.5678C26.6605 95.0306 28.518 93.1441 30.1486 93.1219C31.777 93.0974 32.9449 92.2476 35.5432 92.9617C36.8268 93.3132 46.6284 94.5122 54.9105 95.2196C63.4017 95.9448 70.3602 96.1762 70.3602 96.1762L70.9854 89.6626Z" fill="#FB9390"/>
<path d="M94.6879 103.871C94.8992 101.304 94.3942 96.4187 94.2786 95.5667C95.0549 92.9016 99.7888 92.628 100.383 91.509C100.383 91.509 98.2962 84.7641 95.4465 84.8019C95.4465 84.8019 88.7594 87.3424 86.5103 88.5169C86.4769 88.508 85.7139 88.8573 85.378 88.8551C83.2068 88.8395 75.6165 88.6104 74.1995 89.0331L75.0025 100.761C75.4118 101.433 76.0748 115.637 76.9157 116.747C77.7543 117.857 89.8027 122.19 91.8271 120.887C91.9072 120.836 94.2585 109.059 94.6879 103.871Z" fill="#FDB32A"/>
<path d="M78.1533 89.3045C76.7541 88.6349 66.5254 88.6571 66.5254 88.6571C66.5254 88.6571 65.1106 95.7113 66.254 97.4064C66.254 97.4064 75.3125 98.7545 75.0545 99.4975L78.1533 89.3045Z" fill="#FDB32A"/>
<path d="M79.8249 84.0567C79.8249 84.0567 81.4667 87.8607 81.658 89.4624C81.8493 91.0641 83.7001 95.9515 87.0214 95.2397C90.3427 94.5256 86.2384 88.6793 85.5888 87.2111C84.9392 85.7429 83.818 81.0045 83.818 81.0045L79.8249 84.0567Z" fill="#FB9390"/>
<path d="M84.4102 83.3759C84.072 82.0857 83.8162 81.0045 83.8162 81.0045L79.8231 84.0544C79.8231 84.0544 80.159 84.833 80.5438 85.8341C82.5793 85.7963 83.8318 84.7663 84.4102 83.3759Z" fill="#EF7F7F"/>
<path d="M74.5569 74.8091C74.5569 74.8091 73.3534 76.4152 73.6315 78.6042C73.9096 80.7932 76.8038 85.4649 81.4776 84.8086C86.1537 84.1524 86.1826 79.414 83.9513 76.72C81.7201 74.0238 78.1185 70.9583 74.5569 74.8091Z" fill="#FB9390"/>
<path d="M83.9343 75.294C84.2235 76.1572 84.05 76.9936 83.5472 77.1605C83.0444 77.3295 82.4038 76.7667 82.1146 75.9036C81.8254 75.0404 81.9989 74.204 82.5017 74.0371C83.0022 73.8681 83.6451 74.4309 83.9343 75.294Z" fill="#FB9390"/>
<path d="M96.4706 179.638C96.1836 178.92 93.2917 181.211 92.611 181.678C91.8435 182.201 91.7879 182.79 91.8057 182.924C91.8546 183.275 99.2135 192.338 101.365 193.591C101.567 193.709 101.994 193.713 102.121 193.664C103.316 193.204 101.371 185.789 99.8008 184.323C98.7864 183.376 97.7586 182.875 96.4706 179.638Z" fill="#0B0754"/>
<path d="M74.9283 74.3397C74.9283 74.3397 76.6635 80.2193 75.3199 82.0234C73.9762 83.8276 75.8293 85.9498 75.8293 85.9498C75.8293 85.9498 71.6449 80.9668 72.2388 78.4975C72.8328 76.0304 74.9283 74.3397 74.9283 74.3397Z" fill="#0B0754"/>
<path d="M76.7394 82.3437C77.5491 82.8487 77.9295 83.7007 77.5892 84.248C77.2488 84.7952 76.3145 84.8308 75.5047 84.3258C74.695 83.8208 74.3146 82.9688 74.655 82.4216C74.9953 81.8743 75.9274 81.841 76.7394 82.3437Z" fill="#FB9390"/>
<path d="M86.0025 68.2377L85.6911 69.0875C85.5086 69.5858 85.6777 70.1441 86.1026 70.46L86.8567 71.0206C87.3328 71.3743 87.9957 71.3254 88.4162 70.9072L89.0791 70.2465L86.0025 68.2377Z" fill="#FA7167"/>
<path d="M90.2063 69.5857L91.4498 69.2476L92.3085 69.7081C92.3085 69.7081 97.8833 72.1907 98.9867 72.193C100.092 72.1974 100.942 70.1864 100.675 69.8082C100.408 69.43 96.7933 68.5157 96.7933 68.5157L94.5487 66.4847L94.4219 65.0142L90.2063 69.5857Z" fill="#0B0754"/>
<path d="M89.7598 60.0222L85.8222 66.9874C85.4596 67.6303 85.6465 68.4423 86.2538 68.8605L88.6319 70.5022C89.2214 70.9093 90.0222 70.8137 90.5005 70.282L95.7461 64.438L89.7598 60.0222Z" fill="#FA7167"/>
<path d="M89.5066 59.9021L95.7421 64.6093C96.207 64.9608 96.8588 64.923 97.2815 64.5203L108.731 53.602L96.2715 44.5769L89.1662 58.4071C88.8993 58.9233 89.0439 59.555 89.5066 59.9021Z" fill="#FA7167"/>
<path d="M104.251 46.6503C107.79 49.0617 109.963 52.0337 109.109 53.2884C108.255 54.5431 104.693 53.6065 101.154 51.1951C97.6148 48.7836 95.4414 45.8116 96.2956 44.5569C97.1498 43.3023 100.711 44.2388 104.251 46.6503Z" fill="#0B0754"/>
<path d="M108.082 52.7745C107.081 53.0103 104.516 52.2384 101.735 50.3431C98.2539 47.9694 96.9436 45.6181 97.1505 45.1353C97.155 45.1353 97.2017 45.0997 97.3218 45.0708C98.3229 44.835 100.888 45.6069 103.669 47.5023C107.152 49.8759 108.46 52.2273 108.253 52.71C108.249 52.7123 108.204 52.7456 108.082 52.7745Z" fill="#DDE8FE"/>
<path d="M99.752 68.0797L98.2748 68.6336C98.2748 68.6336 97.3094 69.0607 97.0891 69.8972C96.8689 70.7336 95.8055 70.5401 96.1014 69.6636C96.395 68.7871 96.6998 68.2532 96.6998 68.2532C96.6998 68.2532 95.4986 69.8994 95.374 69.9105C94.6755 69.9839 94.5709 68.954 95.7633 67.7838C96.9512 66.6181 99.752 68.0797 99.752 68.0797Z" fill="#FB9390"/>
<path d="M94.774 68.7092C94.774 68.7092 92.2424 69.7436 92.7496 70.3754C93.2569 71.0072 94.774 71.7035 94.8163 71.3676C94.8586 71.0294 93.8241 70.5667 94.5004 69.8704C94.6873 69.6747 95.6171 68.7092 94.774 68.7092Z" fill="#FB9390"/>
</svg>
