<svg width="300" height="162" viewBox="0 0 300 162" fill="none" xmlns="http://www.w3.org/2000/svg">
<path opacity="0.5" d="M31.6113 149.7C31.6113 83.3614 85.3895 29.5833 151.728 29.5833C218.067 29.5833 271.845 83.3614 271.845 149.7" fill="#E0E9F8"/>
<g opacity="0.7">
<path d="M34.2883 150.297C34.2883 150.297 62.1295 83.9022 72.108 90.0428C82.0865 96.1833 105.657 150.297 105.657 150.297H34.2883Z" fill="#C5D6F1"/>
</g>
<g opacity="0.7">
<path d="M274.155 150.297C274.155 150.297 248.704 86.7358 239.582 92.6145C230.46 98.4929 208.912 150.297 208.912 150.297H274.155Z" fill="#C0D3F2"/>
</g>
<path d="M157.101 151.448H139.447C138.811 151.448 138.296 150.932 138.296 150.296C138.296 149.661 138.811 149.145 139.447 149.145H157.101C157.737 149.145 158.253 149.661 158.253 150.296C158.253 150.932 157.737 151.448 157.101 151.448Z" fill="#5E349D"/>
<path d="M273.137 28.2904H193.457C190.712 28.2904 188.467 26.0453 188.467 23.3012C188.467 20.557 190.712 18.3119 193.457 18.3119H273.137C275.881 18.3119 278.126 20.557 278.126 23.3012C278.126 26.0453 275.881 28.2904 273.137 28.2904Z" fill="#E0E9F8"/>
<path d="M96.5471 14.9674H48.334C45.5898 14.9674 43.3447 12.7223 43.3447 9.97814C43.3447 7.23399 45.5898 4.98889 48.334 4.98889H96.5467C99.2909 4.98889 101.536 7.23399 101.536 9.97814C101.536 12.7223 99.2909 14.9674 96.5471 14.9674Z" fill="#E0E9F8"/>
<path d="M251.797 9.97851H203.584C200.84 9.97851 198.595 7.73341 198.595 4.98925C198.595 2.24509 200.84 0 203.584 0H251.797C254.541 0 256.786 2.24509 256.786 4.98925C256.786 7.73306 254.541 9.97851 251.797 9.97851Z" fill="#E0E9F8"/>
<path d="M53.202 33.2797H4.98925C2.24509 33.2797 0 31.0346 0 28.2904C0 25.5463 2.24509 23.3012 4.98925 23.3012H53.202C55.9461 23.3012 58.1912 25.5463 58.1912 28.2904C58.1912 31.0346 55.9461 33.2797 53.202 33.2797Z" fill="#E0E9F8"/>
<path d="M260.195 69.5835H211.982C209.238 69.5835 206.993 67.3385 206.993 64.5943C206.993 61.8501 209.238 59.605 211.982 59.605H260.195C262.939 59.605 265.184 61.8501 265.184 64.5943C265.185 67.3385 262.939 69.5835 260.195 69.5835Z" fill="#E0E9F8"/>
<path d="M91.3023 74.5728H29.9548C27.5271 74.5728 25.541 72.5867 25.541 70.159V69.0084C25.541 66.5807 27.5271 64.5943 29.9548 64.5943H91.3023C93.73 64.5943 95.7165 66.5807 95.7165 69.0084V70.159C95.7165 72.5863 93.73 74.5728 91.3023 74.5728Z" fill="#E0E9F8"/>
<path d="M299.441 154.956C299.441 158.727 296.384 161.784 292.613 161.784H18.7251C14.9541 161.784 11.897 158.727 11.897 154.956C11.897 151.185 14.9541 148.127 18.7251 148.127H292.613C296.384 148.127 299.441 151.185 299.441 154.956Z" fill="#E0E9F8"/>
<path opacity="0.5" d="M47.9562 120.036C47.9562 120.036 42.5158 139.278 55.8592 139.934C69.2025 140.59 67.1264 127.211 64.808 121.965C62.4897 116.72 80.0782 98.2437 60.941 88.2708C41.804 78.2986 35.1378 115.433 47.9562 120.036Z" fill="#BCD1F3"/>
<path opacity="0.5" d="M25.0123 127.552C25.0123 127.552 21.1056 138.702 28.9505 139.573C36.7953 140.444 36.0569 132.479 34.88 129.301C33.7031 126.124 44.7464 115.867 33.8226 109.291C22.8989 102.715 17.6202 124.372 25.0123 127.552Z" fill="#BCD1F3"/>
<path d="M29.5828 117.318L29.7115 149.145" stroke="#99B9EE"/>
<path d="M33.0838 124.881L29.6307 129.143L25.9714 125.335" stroke="#99B9EE"/>
<path d="M54.8271 99.9021L55.3255 148.127" stroke="#99B9EE"/>
<path d="M60.8699 106.101L54.9477 111.562L49.5835 106.55" stroke="#99B9EE"/>
<path d="M60.8372 116.239L54.915 121.701L49.5508 116.688" stroke="#99B9EE"/>
<path opacity="0.5" d="M267.912 120.036C267.912 120.036 262.472 139.278 275.815 139.934C289.158 140.59 287.082 127.211 284.764 121.965C282.445 116.72 300.034 98.2437 280.897 88.2708C261.76 78.2986 255.094 115.433 267.912 120.036Z" fill="#BCD1F3"/>
<path opacity="0.5" d="M244.968 127.552C244.968 127.552 241.061 138.702 248.906 139.573C256.751 140.444 256.012 132.479 254.836 129.301C253.659 126.124 264.702 115.867 253.778 109.291C242.855 102.715 237.576 124.372 244.968 127.552Z" fill="#BCD1F3"/>
<path d="M249.538 117.318L249.667 149.145" stroke="#99B9EE"/>
<path d="M253.039 124.881L249.586 129.143L245.927 125.335" stroke="#99B9EE"/>
<path d="M274.782 99.9021L275.281 148.127" stroke="#99B9EE"/>
<path d="M280.825 106.101L274.903 111.562L269.539 106.55" stroke="#99B9EE"/>
<path d="M280.793 116.239L274.87 121.701L269.507 116.688" stroke="#99B9EE"/>
<path d="M167.744 91.2009L162.69 55.686L149.054 53.8146L141.962 90.9442L167.744 91.2009Z" fill="#FAB9AF"/>
<path d="M157.205 146.231L157.22 150.234C157.222 151.048 157.112 151.859 156.891 152.643L156.543 153.876C156.257 154.888 157.018 155.893 158.07 155.889C160.796 155.879 165.456 155.886 166.657 155.888C166.854 155.889 167.046 155.756 167.064 155.56C167.165 154.391 163.789 153.609 161.247 152.625C159.31 151.875 159.413 148.394 159.652 146.361C159.742 145.593 159.102 144.94 158.331 145.004C157.693 145.057 157.203 145.591 157.205 146.231Z" fill="#0B4870"/>
<path d="M138.466 145.108L137.087 149.688C137.026 149.89 136.935 150.082 136.817 150.257L135.839 151.709C135.218 152.631 135.665 153.89 136.728 154.215C136.728 154.215 138.699 154.909 140.732 155.576C142.813 156.26 145.429 155.688 145.429 155.14C145.429 153.92 144.292 154.888 142.387 153.614C141.749 153.187 141.09 152.741 140.503 152.28C138.863 150.993 140.295 147.735 141.298 145.9C141.659 145.24 141.276 144.421 140.54 144.264L140.065 144.163C139.368 144.014 138.672 144.425 138.466 145.108Z" fill="#0B4870"/>
<path d="M152.555 91.5443L167.665 90.2759C167.665 90.2759 169.186 101.273 165.368 121.181C163.576 130.517 159.844 148.357 159.844 148.357C158.919 148.761 157.979 148.863 157.021 148.624C157.021 148.624 156.737 140.755 156.565 132.28C156.398 124.153 156.353 115.469 155.836 112.627C154.777 106.823 152.555 91.5443 152.555 91.5443Z" fill="#0E538C"/>
<path opacity="0.07" d="M152.555 91.5443L167.665 90.2759C167.665 90.2759 169.186 101.273 165.368 121.181C163.576 130.517 159.844 148.357 159.844 148.357C158.919 148.761 157.979 148.863 157.021 148.624C157.021 148.624 156.737 140.755 156.565 132.28C156.398 124.153 156.353 115.469 155.836 112.627C154.777 106.823 152.555 91.5443 152.555 91.5443Z" fill="black"/>
<path d="M155.674 91.7359C157.234 100.108 160.719 112.628 154.006 124.389C147.293 136.15 140.242 148.378 140.242 148.378C139.334 148.415 138.51 148.085 137.744 147.504C137.744 147.504 138.922 142.172 140.623 135.946C142.569 128.824 145.035 120.446 144.333 116.079C143.016 107.892 141.504 96.99 141.962 91.6952C142.42 86.4013 154.853 87.3336 155.674 91.7359Z" fill="#0E538C"/>
<path opacity="0.07" d="M155.674 91.7359C157.234 100.108 160.719 112.628 154.006 124.389C147.293 136.15 140.242 148.378 140.242 148.378C139.334 148.415 138.51 148.085 137.744 147.504C137.744 147.504 138.922 142.172 140.623 135.946C142.569 128.824 145.035 120.446 144.333 116.079C143.016 107.892 141.504 96.99 141.962 91.6952C142.42 86.4013 154.853 87.3336 155.674 91.7359Z" fill="black"/>
<path d="M168.267 90.2965L162.691 55.6865L149.055 53.8151L141.726 90.3612C141.589 91.048 142.034 91.7148 142.722 91.8456C145.261 92.3267 151.384 93.3319 158.238 93.3319C163.354 93.3319 166.229 92.3369 167.537 91.7074C168.066 91.4512 168.36 90.877 168.267 90.2965Z" fill="white"/>
<path d="M153.314 55.9702C153.314 58.4633 152.861 60.9328 152.01 63.276C150.344 67.8605 147.845 76.5288 149.33 84.1664C151.468 95.1642 154.217 99.61 150.653 102.173C147.089 104.736 140.254 100.459 140.057 99.0334C139.859 97.6078 141.387 80.0948 143.118 72.5077C144.849 64.9206 149.698 54.013 149.698 54.013L151.752 54.2325C152.64 54.3275 153.314 55.0771 153.314 55.9702Z" fill="#D2DFF4"/>
<path d="M158.991 55.1785C158.991 55.1785 161.356 60.2896 160.531 67.6327C159.706 74.9759 157.795 97.3369 164.477 100.713C166.593 101.783 171.426 97.0474 171.426 95.2911C171.426 93.5343 169.813 87.654 168.285 82.3077C166.757 76.9614 163.074 55.7385 163.074 55.7385L158.991 55.1785Z" fill="#D2DFF4"/>
<path d="M157.087 39.338C154.044 39.338 152.908 41.5044 152.851 45.5118C152.829 47.0123 153.504 48.4997 154.047 49.4491C154.451 50.1546 154.562 50.9898 154.332 51.7693L153.663 54.0311C153.209 56.1294 154.206 57.2802 155.676 57.698C156.405 57.9048 157.278 57.7446 157.914 57.3336C158.671 56.8446 158.733 55.7933 158.592 54.9032L158.42 54.2585C158.187 53.3899 158.691 52.4532 159.57 52.2611C161.913 51.7487 162.248 49.306 162.876 45.5123C163.53 41.5578 160.131 39.338 157.087 39.338Z" fill="#FAB9AF"/>
<path d="M156.975 37.1105C154.865 37.1105 151.378 38.3024 151.819 41.3481L152.208 43.5022C152.363 44.3625 153.081 45.0067 153.952 45.0811C154.033 45.379 154.303 45.5857 154.611 45.5857C154.988 45.5857 155.294 45.28 155.294 44.9028C155.294 43.9313 155.976 43.1024 156.924 42.8893C158.087 42.6282 159.328 42.566 160.628 42.9153C163.012 43.5556 165.842 39.6085 165.846 39.5688C165.846 39.5688 164.639 40.4927 162.251 39.6158C159.863 38.7389 160.859 36.9924 156.975 37.1105Z" fill="#0E538C"/>
<path d="M154.528 45.5857C154.528 46.5151 154.182 47.268 153.288 47.268C152.393 47.268 151.819 45.9904 151.819 45.061C151.819 44.1317 152.393 43.9034 153.288 43.9034C154.182 43.9034 154.528 44.6564 154.528 45.5857Z" fill="#FAB9AF"/>
<path d="M149.918 44.1665C149.918 44.1665 149.595 44.9288 148.825 46.0012C148.441 46.5396 147.943 47.1525 147.331 47.8089C146.728 48.4747 146.047 49.2198 145.292 50.0169C144.544 50.8194 143.718 51.6703 142.887 52.6031C142.049 53.5265 141.224 54.5504 140.454 55.6459C139.702 56.7506 138.973 57.9151 138.425 59.105C138.158 59.6983 137.927 60.298 137.794 60.855C137.655 61.4081 137.616 61.9288 137.687 62.2443C137.722 62.4001 137.774 62.502 137.821 62.5603C137.875 62.6137 137.929 62.6353 137.994 62.6794C138.128 62.7577 138.419 62.9179 138.896 63.0115L139.164 63.0781C139.204 63.087 139.262 63.1051 139.289 63.1066L139.366 63.11L139.674 63.1335L140.034 63.1492L140.379 63.1261C140.827 63.0639 141.218 62.9307 141.554 62.7416C142.223 62.3595 142.712 61.8813 143.311 61.3992C143.897 60.903 144.544 60.3342 145.135 59.6895C146.316 58.3981 147.329 56.9412 148.086 55.8443C148.478 55.2677 148.786 54.815 148.996 54.5063C149.22 54.1825 149.356 54.0022 149.356 54.0022L150.041 54.0243C150.041 54.0243 150.159 54.2153 150.346 54.5882C150.518 54.96 150.762 55.518 150.951 56.2568C151.328 57.7216 151.567 59.9736 150.655 62.6436C150.192 63.9614 149.438 65.4052 148.145 66.652C147.495 67.2673 146.713 67.8228 145.815 68.2402C144.92 68.662 143.909 68.929 142.883 69.0363C140.82 69.2426 138.741 68.7801 137.089 68.0041C136.652 67.8086 136.145 67.5637 135.671 67.2545C135.188 66.9243 134.701 66.5476 134.274 66.0244C133.848 65.5154 133.502 64.8981 133.289 64.2568C133.083 63.6146 133.011 62.9753 133.018 62.3884C133.047 61.2111 133.357 60.2588 133.706 59.4161C134.06 58.572 134.487 57.8426 134.929 57.1557C135.815 55.7884 136.773 54.6038 137.741 53.5128C138.698 52.4159 139.647 51.4048 140.537 50.4441C141.437 49.4927 142.301 48.6124 143.136 47.8422C143.968 47.0682 144.768 46.4019 145.493 45.8327C146.21 45.2536 146.886 44.8078 147.477 44.482C148.656 43.8265 149.479 43.6394 149.479 43.6394L149.918 44.1665Z" fill="#D2DFF4"/>
<path d="M173.598 93.3594C173.598 93.3594 173.141 92.7558 172.765 91.6609C172.565 91.1146 172.431 90.44 172.269 89.668C172.119 88.8944 171.965 88.0209 171.834 87.0637C171.695 86.1079 171.561 85.0703 171.362 83.9822C171.162 82.8946 170.891 81.7575 170.615 80.5877C170.33 79.4192 170.004 78.2205 169.651 77.028C169.484 76.426 169.278 75.8444 169.1 75.2512C168.902 74.6716 168.72 74.1205 168.486 73.4959C168.269 72.9055 168.035 72.3132 167.802 71.7322C167.551 71.1576 167.3 70.5893 167.029 70.0421C166.496 68.9432 165.932 67.9105 165.466 66.9096C164.989 65.9107 164.587 64.9471 164.203 64.0251C163.806 63.1124 163.427 62.2463 163.044 61.4443C162.66 60.6448 162.295 59.8923 161.94 59.2221C161.585 58.5529 161.267 57.94 160.984 57.4364C160.701 56.9127 160.478 56.5017 160.325 56.221C160.169 55.9329 160.09 55.7659 160.09 55.7659L160.429 55.2853C160.429 55.2853 160.612 55.3088 160.946 55.3784C161.117 55.4073 161.318 55.4602 161.552 55.5288C161.789 55.5949 162.065 55.6699 162.358 55.783C162.952 55.9956 163.657 56.3057 164.419 56.7511C165.178 57.1969 166.009 57.7676 166.818 58.501C167.628 59.2309 168.444 60.1015 169.173 61.1087C169.909 62.1091 170.577 63.2378 171.064 64.467C171.572 65.6898 171.886 67.0101 172.162 68.3274C172.419 69.6276 172.68 70.9484 172.94 72.2696C173.062 72.8903 173.184 73.5978 173.3 74.2689C173.394 74.9362 173.485 75.6049 173.549 76.2564C173.693 77.564 173.788 78.8382 173.884 80.0674C173.993 81.2941 174.057 82.4797 174.162 83.5961C174.268 84.7126 174.404 85.761 174.504 86.7325C174.613 87.7025 174.669 88.5966 174.697 89.3907C174.715 90.1863 174.732 90.879 174.652 91.4595C174.516 92.6172 174.183 93.3025 174.183 93.3025L173.598 93.3594Z" fill="#D2DFF4"/>
<path d="M153.649 43.8128C152.831 44.2287 152.056 44.7358 151.715 44.8671C151.573 44.9219 151.149 44.9528 151.026 44.9704C150.667 45.0219 150.102 45.0449 149.824 45.2791L148.639 46.2437C148.075 46.7194 147.417 46.8071 146.941 46.2427C146.426 45.6313 146.714 44.9136 147.38 44.4727L148.198 43.7839C148.732 43.4307 149.055 42.8712 149.402 42.3333C150.108 41.2389 151.438 40.5339 152.557 40.068C153.26 39.7755 154.194 40.1964 155.408 40.8244C156.004 41.133 156.836 41.7895 156.009 41.9654C155.316 42.1129 153.417 41.283 152.27 42.9765C152.213 43.0598 152.084 43.2837 152.16 43.3802C152.389 43.6683 153.056 43.1941 153.474 43.0726C154.06 42.9016 154.485 43.0554 154.594 43.2769C154.711 43.511 154.233 43.5154 153.649 43.8128Z" fill="#FAB9AF"/>
<path d="M172.538 97.3658C172.556 96.4482 172.473 95.5267 172.518 95.1642C172.537 95.0128 172.71 94.6238 172.752 94.5077C172.876 94.1662 173.122 93.6572 173.046 93.3016L172.753 91.8025C172.599 91.0803 172.832 90.4582 173.554 90.3048C174.336 90.1383 174.834 90.7301 174.909 91.5262L175.131 92.5721C175.191 93.2095 175.532 93.7581 175.843 94.3176C176.476 95.4556 176.472 96.9606 176.355 98.1677C176.282 98.9251 175.471 99.5517 174.346 100.326C173.793 100.707 172.822 101.132 173.056 100.319C173.252 99.6384 174.878 98.3544 173.925 96.5442C173.877 96.455 173.741 96.2356 173.62 96.2576C173.258 96.3233 173.362 97.1355 173.272 97.5612C173.147 98.1589 172.811 98.4617 172.565 98.4538C172.304 98.4445 172.525 98.0208 172.538 97.3658Z" fill="#FAB9AF"/>
<path d="M154.158 49.6642C154.158 49.6642 156.431 52.7887 159.26 52.3655C159.26 52.3655 158.672 52.6462 158.53 53.1028C158.529 53.1028 155.843 52.9044 154.158 49.6642Z" fill="#E8948B"/>
<path fill-rule="evenodd" clip-rule="evenodd" d="M169.651 22.6735C170.066 20.9863 169.371 19.8634 167.701 19.4534L165.69 18.9592C164.003 18.5446 162.885 19.2217 162.47 20.9092L162.003 22.8122C161.959 22.992 162.022 23.1217 162.219 23.1701L164.087 23.6288C164.266 23.673 164.4 23.5917 164.444 23.4122L164.788 22.0118C164.903 21.5449 165.198 21.3508 165.683 21.4699L166.544 21.6816C166.993 21.792 167.201 22.1092 167.086 22.576L166.478 25.0538L163.441 26.878C163.284 26.973 163.2 27.0851 163.156 27.2649L162.768 28.8445C162.71 29.0779 162.805 29.2342 163.038 29.2917L164.726 29.7063C164.96 29.7638 165.116 29.6691 165.173 29.4354L165.367 28.6458C165.416 28.4481 165.5 28.336 165.657 28.241L168.475 26.6106C168.649 26.5202 168.734 26.4077 168.783 26.2104L169.651 22.6735ZM162.636 30.9256C162.403 30.8684 162.247 30.9631 162.19 31.1965L161.784 32.8482C161.726 33.0816 161.821 33.2379 162.054 33.2954L163.742 33.71C163.976 33.7675 164.132 33.6725 164.189 33.4391L164.595 31.7874C164.653 31.5539 164.558 31.3976 164.324 31.3402L162.636 30.9256Z" fill="#D2DFF4"/>
</svg>
