<svg width="275" height="233" viewBox="0 0 275 233" fill="none" xmlns="http://www.w3.org/2000/svg">
<path d="M268.647 68.5926C264.853 62.116 258.744 57.0131 251.686 54.5178C248.645 53.4523 244.99 52.9477 242.508 54.9944C240.025 57.0411 240.889 62.2842 244.098 62.2001C234.194 55.3028 222.254 51.4056 210.203 51.0972C207.19 51.0131 203.758 51.3495 201.861 53.7047C199.937 56.0598 201.555 60.7141 204.512 60.1814C195.417 54.3215 183.421 56.1159 173.239 59.7608C170.282 60.8262 167.353 62.0038 164.424 63.1814C161.215 64.4711 162.164 69.2655 165.623 69.2375L268.647 68.5926Z" fill="#C5D6F1"/>
<path d="M17.6684 52.304C14.9618 53.2765 12.1995 49.9423 12.7854 47.1083C13.3714 44.2743 15.9942 42.3571 18.645 41.1902C24.6441 38.5784 31.7593 38.6062 37.7305 41.2735C36.3353 40.2177 36.4469 37.9393 37.563 36.6057C38.6792 35.272 40.437 34.6607 42.167 34.3273C50.3425 32.7714 59.2993 36.3556 64.0985 43.1351C62.5081 41.468 63.3731 38.495 65.2705 37.2447C67.1678 35.9944 69.6791 36.0222 71.9113 36.4112C81.5936 38.1338 89.8249 43.3852 91.6665 53.0264L17.6684 52.304Z" fill="#C5D6F1"/>
<path d="M232.797 35.396C242.571 35.396 250.495 27.4724 250.495 17.698C250.495 7.92367 242.571 0 232.797 0C223.023 0 215.099 7.92367 215.099 17.698C215.099 27.4724 223.023 35.396 232.797 35.396Z" fill="#C5D6F1"/>
<rect x="66.8911" y="193.762" width="13.962" height="66.3209" transform="rotate(-180 66.8911 193.762)" fill="#F2F2F2"/>
<rect x="69.4028" y="146.265" width="18.6721" height="1.62923" transform="rotate(-180 69.4028 146.265)" fill="#F2F2F2"/>
<path d="M54.6426 125.673L60.1657 110.785L65.6888 125.673C69.8101 128.651 71.1839 131.207 71.1839 131.207C71.1839 131.207 66.614 129.971 60.1657 129.887C53.6893 129.971 49.1475 131.207 49.1475 131.207C49.1475 131.207 50.5212 128.623 54.6426 125.673Z" fill="#F2F2F2"/>
<path d="M59.9136 132.948C61.4275 132.948 62.6331 134.184 62.6331 135.673V140.954H57.166V135.673C57.1941 134.184 58.4276 132.948 59.9136 132.948Z" fill="#F2F2F2"/>
<rect x="84.6973" y="96.8528" width="20.4104" height="97.0796" fill="#E0E9F8"/>
<rect x="118.593" y="117.724" width="34.3724" height="76.1805" fill="#E0E9F8"/>
<rect x="66.2778" y="161.151" width="24.9242" height="32.7531" fill="#E0E9F8"/>
<path d="M87.0523 155.926V160.168H82.3703V155.926H75.2771V160.168H70.7353V155.926H63.6421L64.1187 171.573H69.7259H70.7353H75.2771H76.8191H81.7535H82.3703H87.0523H88.8186H89.9681L94.1455 155.926H87.0523Z" fill="#E0E9F8"/>
<rect x="41.7739" y="161.151" width="24.9242" height="32.7531" fill="#E0E9F8"/>
<path d="M62.5489 155.926V160.168H57.8669V155.926H50.7737V160.168H46.2038V155.926H39.1387L39.5873 171.573H45.1945H46.2038H50.7737H52.2877H57.222H57.8669H62.5489H64.3152H65.4366L69.614 155.926H62.5489Z" fill="#E0E9F8"/>
<rect x="206.291" y="127.443" width="13.962" height="66.3209" fill="#E0E9F8"/>
<rect x="203.795" y="144.662" width="18.6721" height="1.62923" fill="#E0E9F8"/>
<path d="M218.542 125.673L213.019 110.785L207.496 125.673C203.375 128.651 202.001 131.207 202.001 131.207C202.001 131.207 206.571 129.971 213.019 129.887C219.496 129.971 224.037 131.207 224.037 131.207C224.037 131.207 222.664 128.623 218.542 125.673Z" fill="#E0E9F8"/>
<path d="M213.272 132.948C211.758 132.948 210.552 134.184 210.552 135.673V140.954H216.019V135.673C215.991 134.184 214.758 132.948 213.272 132.948Z" fill="#E0E9F8"/>
<rect x="206.91" y="193.925" width="24.9242" height="32.7531" transform="rotate(-180 206.91 193.925)" fill="#E0E9F8"/>
<path d="M186.133 155.926V160.168H190.815V155.926H197.908V160.168H202.45V155.926H209.543L209.066 171.573H203.459H202.45H197.908H196.366H191.432H190.815H186.133H184.366H183.217L179.04 155.926H186.133Z" fill="#E0E9F8"/>
<rect x="231.409" y="193.925" width="24.9242" height="32.7531" transform="rotate(-180 231.409 193.925)" fill="#E0E9F8"/>
<path d="M210.636 155.926V160.168H215.318V155.926H222.411V160.168H226.981V155.926H234.046L233.598 171.573H227.99H226.981H222.411H220.897H215.963H215.318H210.636H208.87H207.748L203.571 155.926H210.636Z" fill="#E0E9F8"/>
<rect x="81.0527" y="122.021" width="27.3353" height="2.38766" fill="#E0E9F8"/>
<path d="M163.087 145.28V151.039H156.891V145.28H147.246V151.039H140.882V145.28H136.536H136.508H132.135V151.039H125.77V145.28H116.154V151.039H109.958V145.28H100.313L105.108 165.028V193.904H136.508H136.536H167.909V165.028L172.703 145.28H163.087Z" fill="#E0E9F8"/>
<path d="M153.414 111.853V115.645H149.377V111.853H143.069V115.645H138.92V111.853H135.78H132.668V115.645H128.49V111.853H122.21V115.645H118.173V111.853H111.865L115.229 125.729H117.276H118.173H122.21H123.556H127.929H128.49H132.668H134.238H135.247L135.78 123.679L136.34 125.729H137.35H138.92H143.069H143.63H148.031H149.377H153.414H154.312H156.33L159.723 111.853H153.414Z" fill="#E0E9F8"/>
<path d="M102.64 94.2404L94.538 72.4424L86.4356 94.2404C80.4078 98.5943 78.3892 102.33 78.3892 102.33C78.3892 102.33 85.0618 100.533 94.538 100.42C104.014 100.533 110.687 102.33 110.687 102.33C110.687 102.33 108.668 98.5943 102.64 94.2404Z" fill="#E0E9F8"/>
<rect x="188.202" y="193.902" width="20.4104" height="97.0796" transform="rotate(-180 188.202 193.902)" fill="#E0E9F8"/>
<rect x="191.875" y="124.419" width="27.3353" height="2.38766" transform="rotate(-180 191.875 124.419)" fill="#E0E9F8"/>
<path d="M170.264 94.2404L178.367 72.4424L186.469 94.2404C192.497 98.5943 194.515 102.33 194.515 102.33C194.515 102.33 187.843 100.533 178.367 100.42C168.89 100.533 162.218 102.33 162.218 102.33C162.218 102.33 164.236 98.5943 170.264 94.2404Z" fill="#E0E9F8"/>
<path d="M94.9027 104.915C92.6879 104.915 90.8936 106.712 90.8936 108.931V116.656H98.8839V108.931C98.9119 106.684 97.1176 104.915 94.9027 104.915Z" fill="#F7F7F7"/>
<path d="M135.864 123.229C132.92 123.229 130.509 125.617 130.509 128.595V138.904H141.191V128.595C141.219 125.617 138.808 123.229 135.864 123.229Z" fill="#F7F7F7"/>
<path d="M178.002 104.915C180.217 104.915 182.011 106.712 182.011 108.931V116.656H174.021V108.931C173.993 106.684 175.787 104.915 178.002 104.915Z" fill="#F7F7F7"/>
<path d="M135.78 163.511C128.995 163.511 123.472 168.174 123.472 173.904V193.932H148.087V173.904C148.087 168.146 142.592 163.511 135.78 163.511Z" fill="#F7F7F7"/>
<path d="M16.3368 165.871C25.3437 165.871 32.6453 158.575 32.6453 149.575C32.6453 140.575 25.3437 133.279 16.3368 133.279C7.32987 133.279 0.0283203 140.575 0.0283203 149.575C0.0283203 158.575 7.32987 165.871 16.3368 165.871Z" fill="#C5D6F1"/>
<path d="M16.3369 197.534C16.1397 197.534 15.9707 197.365 15.9707 197.168V149.575C15.9707 149.378 16.1397 149.209 16.3369 149.209C16.534 149.209 16.703 149.378 16.703 149.575V197.168C16.703 197.365 16.534 197.534 16.3369 197.534Z" fill="#99B9EE"/>
<path d="M16.3367 158.384C16.2522 158.384 16.1395 158.356 16.0832 158.272L11.5202 153.712C11.3793 153.572 11.3793 153.318 11.5202 153.178C11.661 153.037 11.9145 153.037 12.0553 153.178L16.6183 157.737C16.7592 157.878 16.7592 158.131 16.6183 158.272C16.5338 158.356 16.4493 158.384 16.3367 158.384Z" fill="#99B9EE"/>
<path d="M16.3367 162.606C16.2522 162.606 16.1395 162.578 16.0832 162.494L11.5202 157.934C11.3793 157.793 11.3793 157.54 11.5202 157.399C11.661 157.259 11.9145 157.259 12.0553 157.399L16.6183 161.959C16.7592 162.1 16.7592 162.353 16.6183 162.494C16.5338 162.578 16.4493 162.606 16.3367 162.606Z" fill="#99B9EE"/>
<path d="M231.532 147.033C227.236 149.357 224.287 153.921 224.287 159.129C224.287 166.717 230.465 172.905 238.103 172.905C243.971 172.905 248.998 169.237 250.991 164.057L231.532 147.033Z" fill="#C5D6F1"/>
<path d="M252.901 164.141C264.966 164.141 274.747 154.388 274.747 142.357C274.747 130.325 264.966 120.572 252.901 120.572C240.835 120.572 231.054 130.325 231.054 142.357C231.054 154.388 240.835 164.141 252.901 164.141Z" fill="#C5D6F1"/>
<path d="M252.9 202.977C253.181 202.977 253.406 202.753 253.406 202.473V142.357C253.406 142.077 253.181 141.853 252.9 141.853C252.62 141.853 252.395 142.077 252.395 142.357V202.473C252.395 202.753 252.62 202.977 252.9 202.977Z" fill="#99B9EE"/>
<path d="M252.901 154.145C253.041 154.145 253.153 154.089 253.266 154.005L259.387 147.901C259.584 147.705 259.584 147.397 259.387 147.201C259.191 147.005 258.882 147.005 258.685 147.201L252.536 153.277C252.339 153.473 252.339 153.781 252.536 153.977C252.62 154.089 252.76 154.145 252.901 154.145Z" fill="#99B9EE"/>
<path d="M252.901 159.801C253.041 159.801 253.153 159.745 253.266 159.661L259.387 153.557C259.584 153.361 259.584 153.053 259.387 152.857C259.191 152.661 258.882 152.661 258.685 152.857L252.536 158.961C252.339 159.157 252.339 159.465 252.536 159.661C252.62 159.745 252.76 159.801 252.901 159.801Z" fill="#99B9EE"/>
<path d="M238.215 202.977C238.467 202.921 238.636 202.697 238.636 202.445V162.573C238.636 162.293 238.439 162.069 238.159 162.041C237.878 162.013 237.625 162.265 237.625 162.545V202.473C237.625 202.781 237.878 203.033 238.215 202.977Z" fill="#99B9EE"/>
<path d="M238.102 165.821C238.243 165.821 238.355 165.765 238.467 165.681C238.664 165.485 238.664 165.177 238.467 164.981L234.059 160.585C233.862 160.389 233.553 160.389 233.357 160.585C233.16 160.781 233.16 161.089 233.357 161.285L237.765 165.681C237.85 165.765 237.99 165.821 238.102 165.821Z" fill="#99B9EE"/>
<path d="M238.102 169.909C238.243 169.909 238.355 169.853 238.467 169.769C238.664 169.573 238.664 169.265 238.467 169.069L234.059 164.673C233.862 164.477 233.553 164.477 233.357 164.673C233.16 164.869 233.16 165.177 233.357 165.373L237.765 169.769C237.85 169.853 237.99 169.909 238.102 169.909Z" fill="#99B9EE"/>
<path d="M4.58952 190.317H266.78C269.299 190.317 271.37 192.33 271.37 194.839V227.544C271.37 230.025 269.327 232.066 266.78 232.066H4.58952C2.07088 232.066 0 230.053 0 227.544V194.839C0.0279849 192.357 2.07088 190.317 4.58952 190.317Z" fill="#E0E9F8" fill-opacity="0.3"/>
<path d="M186.403 226.786L131.511 226.534C124.911 226.506 119.58 221.126 119.607 214.525L120.19 76.9096C120.217 70.3036 125.597 64.9726 132.203 65.0001L187.096 65.2529C193.696 65.2859 199.027 70.6608 199 77.2613L198.417 214.877C198.39 221.483 193.009 226.814 186.403 226.786Z" fill="#455A64"/>
<path d="M187.019 70.0013L176.374 69.9519C174.945 69.9464 173.785 71.1499 173.78 72.6393L173.769 74.5684C173.763 76.0577 172.598 77.2668 171.175 77.2558L150.428 77.1624C148.999 77.1569 147.85 75.9423 147.856 74.4474L147.867 72.5184C147.872 71.029 146.724 69.809 145.295 69.8035L141.552 69.787L132.237 69.743C127.609 69.721 123.844 73.4582 123.823 78.0802L123.256 212.404C123.234 217.026 126.966 220.79 131.594 220.812L186.376 221.065C191.004 221.087 194.768 217.355 194.79 212.728L195.356 78.4044C195.373 73.7879 191.641 70.0233 187.019 70.0013Z" fill="white"/>
<path d="M179.494 202.888L138.758 202.701C138.335 202.701 137.995 202.239 138 201.673L138.044 191.017C138.044 190.451 138.39 189.995 138.813 190L179.549 190.187C179.972 190.187 180.312 190.649 180.307 191.215L180.263 201.871C180.263 202.437 179.917 202.893 179.494 202.888Z" fill="#4E8AD0"/>
<path d="M150.468 198.042C150.238 198.041 150.032 198 149.849 197.919C149.669 197.835 149.528 197.721 149.425 197.577C149.323 197.43 149.27 197.261 149.267 197.071L149.752 197.074C149.768 197.237 149.835 197.376 149.951 197.489C150.07 197.6 150.243 197.656 150.47 197.657C150.687 197.658 150.857 197.605 150.981 197.499C151.108 197.39 151.172 197.25 151.172 197.08C151.173 196.947 151.137 196.838 151.064 196.755C150.991 196.671 150.899 196.607 150.79 196.563C150.68 196.519 150.532 196.472 150.345 196.421C150.115 196.36 149.931 196.299 149.791 196.239C149.655 196.178 149.537 196.084 149.437 195.957C149.341 195.827 149.293 195.653 149.294 195.436C149.295 195.246 149.344 195.078 149.442 194.932C149.539 194.786 149.674 194.673 149.848 194.594C150.025 194.515 150.227 194.476 150.453 194.477C150.78 194.478 151.046 194.561 151.252 194.725C151.462 194.89 151.579 195.107 151.605 195.377L151.105 195.375C151.089 195.241 151.019 195.124 150.896 195.024C150.773 194.92 150.61 194.867 150.407 194.867C150.217 194.866 150.062 194.915 149.941 195.014C149.821 195.11 149.76 195.247 149.759 195.424C149.759 195.55 149.793 195.654 149.863 195.734C149.936 195.814 150.024 195.876 150.127 195.92C150.234 195.961 150.382 196.008 150.572 196.062C150.801 196.127 150.986 196.191 151.126 196.255C151.266 196.315 151.385 196.411 151.485 196.542C151.584 196.669 151.633 196.842 151.633 197.062C151.632 197.232 151.586 197.392 151.495 197.542C151.405 197.691 151.271 197.812 151.094 197.905C150.917 197.997 150.708 198.043 150.468 198.042ZM154.804 196.552C154.804 196.639 154.799 196.73 154.788 196.827L152.598 196.817C152.614 197.087 152.704 197.299 152.87 197.453C153.04 197.604 153.244 197.68 153.484 197.681C153.681 197.682 153.845 197.637 153.975 197.548C154.109 197.455 154.203 197.332 154.257 197.179L154.747 197.182C154.672 197.445 154.525 197.659 154.304 197.825C154.083 197.987 153.81 198.067 153.483 198.066C153.223 198.065 152.99 198.005 152.784 197.888C152.581 197.77 152.421 197.604 152.306 197.39C152.19 197.173 152.133 196.923 152.134 196.64C152.135 196.356 152.193 196.108 152.307 195.895C152.421 195.682 152.58 195.52 152.784 195.408C152.991 195.292 153.228 195.235 153.495 195.236C153.755 195.237 153.985 195.295 154.184 195.409C154.384 195.523 154.536 195.681 154.642 195.881C154.751 196.078 154.805 196.302 154.804 196.552ZM154.335 196.455C154.335 196.281 154.298 196.133 154.222 196.009C154.145 195.882 154.041 195.787 153.908 195.723C153.778 195.655 153.633 195.621 153.473 195.621C153.243 195.62 153.046 195.692 152.882 195.838C152.722 195.984 152.629 196.187 152.605 196.447L154.335 196.455ZM155.234 196.654C155.236 196.371 155.293 196.124 155.408 195.915C155.522 195.702 155.679 195.538 155.88 195.422C156.083 195.306 156.315 195.249 156.575 195.25C156.912 195.252 157.188 195.335 157.404 195.499C157.624 195.663 157.768 195.891 157.836 196.181L157.346 196.179C157.301 196.012 157.209 195.88 157.073 195.782C156.94 195.685 156.774 195.636 156.574 195.635C156.314 195.634 156.103 195.723 155.943 195.902C155.782 196.078 155.701 196.329 155.699 196.656C155.698 196.986 155.777 197.241 155.936 197.422C156.095 197.603 156.305 197.694 156.565 197.695C156.765 197.696 156.932 197.65 157.066 197.557C157.199 197.465 157.292 197.332 157.342 197.159L157.832 197.161C157.758 197.441 157.61 197.665 157.389 197.834C157.169 197.999 156.893 198.082 156.563 198.08C156.303 198.079 156.072 198.019 155.869 197.902C155.67 197.784 155.514 197.618 155.401 197.405C155.289 197.191 155.233 196.94 155.234 196.654ZM160.877 195.315L160.866 198.055L160.411 198.053L160.412 197.648C160.325 197.787 160.203 197.897 160.046 197.976C159.892 198.052 159.722 198.09 159.536 198.089C159.322 198.088 159.131 198.044 158.961 197.956C158.791 197.865 158.657 197.731 158.558 197.554C158.462 197.377 158.414 197.162 158.415 196.909L158.422 195.304L158.872 195.306L158.866 196.851C158.865 197.121 158.932 197.329 159.068 197.477C159.204 197.621 159.391 197.693 159.627 197.694C159.871 197.695 160.062 197.621 160.203 197.472C160.344 197.322 160.415 197.104 160.416 196.818L160.422 195.313L160.877 195.315ZM162.099 195.766C162.179 195.609 162.293 195.488 162.44 195.402C162.591 195.316 162.772 195.274 162.986 195.275L162.984 195.745L162.864 195.744C162.354 195.742 162.098 196.017 162.095 196.571L162.089 198.061L161.634 198.058L161.645 195.318L162.1 195.321L162.099 195.766ZM163.748 194.883C163.661 194.883 163.588 194.852 163.528 194.792C163.468 194.732 163.439 194.658 163.439 194.572C163.439 194.485 163.47 194.412 163.53 194.352C163.59 194.292 163.664 194.263 163.75 194.263C163.834 194.264 163.903 194.294 163.96 194.354C164.02 194.414 164.049 194.488 164.049 194.575C164.049 194.661 164.018 194.734 163.958 194.794C163.901 194.854 163.831 194.884 163.748 194.883ZM163.966 195.329L163.954 198.069L163.499 198.067L163.511 195.327L163.966 195.329ZM165.295 195.71L165.288 197.325C165.287 197.459 165.315 197.554 165.372 197.611C165.428 197.664 165.526 197.691 165.666 197.692L166.001 197.694L166 198.079L165.59 198.077C165.336 198.076 165.146 198.016 165.02 197.899C164.894 197.782 164.832 197.59 164.833 197.323L164.84 195.708L164.485 195.707L164.486 195.332L164.841 195.333L164.844 194.643L165.299 194.645L165.296 195.335L166.011 195.339L166.01 195.714L165.295 195.71ZM168.922 195.352L167.255 199.374L166.785 199.372L167.331 198.055L166.237 195.34L166.742 195.342L167.593 197.566L168.452 195.35L168.922 195.352Z" fill="white"/>
<path d="M147.028 109.478L132.893 109.413L132.881 112.007L147.016 112.072L147.028 109.478Z" fill="#C5D6F1"/>
<path opacity="0.1" d="M147.028 109.478L132.893 109.413L132.881 112.007L147.016 112.072L147.028 109.478Z" fill="#C5D6F1"/>
<path d="M188.47 125.394C188.47 125.383 188.585 125.399 188.794 125.317C188.987 125.24 189.294 125.009 189.327 124.575C189.327 123.701 189.322 122.426 189.322 120.788C189.322 119.964 189.322 119.052 189.322 118.051C189.322 117.798 189.322 117.546 189.322 117.287C189.327 117.018 189.327 116.771 189.168 116.567C189.025 116.364 188.778 116.232 188.519 116.232C188.239 116.232 187.948 116.232 187.657 116.232C185.321 116.227 182.655 116.221 179.721 116.216C167.949 116.172 151.697 116.111 133.753 116.045C133.517 116.045 133.286 116.161 133.149 116.353C132.995 116.545 133.001 116.776 133.006 117.073C133.006 117.628 133.001 118.189 133.001 118.738C132.995 119.848 132.99 120.948 132.984 122.041C132.984 122.585 132.979 123.135 132.979 123.674C132.99 123.932 132.951 124.245 133.001 124.448C133.055 124.668 133.22 124.855 133.429 124.943C133.539 124.987 133.638 125.004 133.77 125.004H134.171L134.974 125.009C135.507 125.009 136.04 125.015 136.567 125.015C140.799 125.036 144.883 125.058 148.774 125.08C156.55 125.13 163.552 125.168 169.438 125.207C175.313 125.251 180.072 125.289 183.37 125.317C185.008 125.333 186.283 125.35 187.156 125.361C187.58 125.366 187.909 125.377 188.14 125.377C188.36 125.383 188.47 125.394 188.47 125.394C188.47 125.394 188.355 125.405 188.135 125.405C187.904 125.405 187.574 125.41 187.151 125.416C186.272 125.416 184.997 125.421 183.364 125.427C180.067 125.421 175.307 125.416 169.432 125.41C163.546 125.394 156.545 125.372 148.768 125.344C144.877 125.328 140.794 125.311 136.562 125.295C136.034 125.295 135.501 125.289 134.968 125.289L134.166 125.284H133.764C133.627 125.289 133.457 125.267 133.314 125.201C133.028 125.08 132.797 124.822 132.72 124.52C132.676 124.366 132.687 124.207 132.687 124.08V123.674C132.687 123.129 132.693 122.585 132.693 122.041C132.698 120.948 132.704 119.848 132.704 118.738C132.704 118.183 132.709 117.628 132.709 117.073C132.715 116.93 132.704 116.804 132.726 116.633C132.748 116.474 132.814 116.32 132.907 116.188C133.094 115.924 133.418 115.76 133.742 115.765C151.686 115.864 167.938 115.952 179.71 116.018C182.65 116.04 185.31 116.056 187.651 116.078C187.942 116.078 188.228 116.084 188.514 116.084C188.822 116.089 189.113 116.243 189.283 116.485C189.47 116.721 189.47 117.046 189.459 117.293C189.459 117.551 189.454 117.809 189.454 118.062C189.443 119.063 189.437 119.975 189.432 120.799C189.41 122.437 189.393 123.712 189.388 124.591C189.338 125.047 189.009 125.284 188.811 125.355C188.591 125.421 188.47 125.394 188.47 125.394Z" fill="#E0E0E0"/>
<path d="M162.537 119.508L136.685 119.389L136.674 121.812L162.526 121.932L162.537 119.508Z" fill="#C5D6F1"/>
<path opacity="0.2" d="M162.537 119.508L136.685 119.389L136.674 121.812L162.526 121.932L162.537 119.508Z" fill="white"/>
<path d="M146.93 133.144L132.794 133.078L132.782 135.673L146.918 135.738L146.93 133.144Z" fill="#C5D6F1"/>
<path opacity="0.1" d="M146.93 133.144L132.794 133.078L132.782 135.673L146.918 135.738L146.93 133.144Z" fill="black"/>
<path d="M188.107 149.059C188.107 149.048 188.223 149.059 188.431 148.998C188.629 148.932 188.954 148.767 189.129 148.377C189.223 148.185 189.234 147.949 189.223 147.679C189.223 147.41 189.223 147.119 189.217 146.805C189.217 146.173 189.217 145.443 189.212 144.629C189.212 143.81 189.212 142.898 189.212 141.903C189.212 141.656 189.212 141.398 189.212 141.139C189.223 140.875 189.19 140.634 189.052 140.414C188.921 140.199 188.706 140.029 188.453 139.952C188.206 139.875 187.915 139.919 187.624 139.903C185.293 139.897 182.644 139.892 179.71 139.886C167.976 139.842 151.785 139.782 133.902 139.716C133.407 139.705 132.946 140.112 132.896 140.601C132.88 141.123 132.885 141.7 132.88 142.244C132.874 143.349 132.869 144.448 132.863 145.536C132.863 146.08 132.858 146.624 132.858 147.163C132.869 147.432 132.83 147.712 132.891 147.932C132.951 148.157 133.099 148.361 133.292 148.498C133.495 148.636 133.709 148.685 133.973 148.674L134.77 148.68C135.303 148.68 135.831 148.685 136.358 148.685C140.574 148.707 144.646 148.729 148.521 148.751C156.27 148.8 163.25 148.839 169.114 148.877C174.967 148.921 179.71 148.96 182.996 148.987C184.628 149.009 185.898 149.02 186.772 149.031C187.195 149.042 187.519 149.048 187.755 149.048C187.997 149.048 188.107 149.059 188.107 149.059C188.107 149.059 187.992 149.07 187.772 149.07C187.541 149.07 187.217 149.075 186.788 149.081C185.914 149.081 184.645 149.086 183.013 149.092C179.726 149.086 174.983 149.081 169.13 149.075C163.266 149.059 156.286 149.037 148.537 149.009C144.663 148.993 140.59 148.976 136.375 148.96C135.847 148.96 135.32 148.954 134.787 148.954L133.99 148.949C133.72 148.965 133.391 148.899 133.149 148.724C132.902 148.553 132.715 148.295 132.632 148.004C132.55 147.696 132.599 147.427 132.588 147.163C132.588 146.624 132.594 146.08 132.594 145.536C132.599 144.448 132.605 143.349 132.605 142.244C132.61 141.683 132.599 141.156 132.621 140.568C132.682 139.936 133.27 139.414 133.913 139.43C151.796 139.529 167.987 139.617 179.721 139.683C182.65 139.705 185.299 139.721 187.629 139.743C187.915 139.76 188.206 139.71 188.503 139.804C188.789 139.892 189.031 140.09 189.179 140.337C189.338 140.579 189.371 140.886 189.355 141.139C189.355 141.398 189.349 141.656 189.349 141.903C189.338 142.898 189.333 143.81 189.327 144.629C189.316 145.448 189.311 146.173 189.305 146.805C189.3 147.119 189.3 147.41 189.294 147.679C189.3 147.943 189.283 148.201 189.179 148.399C188.987 148.806 188.646 148.971 188.437 149.026C188.223 149.075 188.107 149.059 188.107 149.059Z" fill="#E0E0E0"/>
<path d="M146.825 157.831L132.689 157.766L132.678 160.36L146.813 160.425L146.825 157.831Z" fill="#C5D6F1"/>
<path opacity="0.1" d="M146.825 157.831L132.689 157.766L132.678 160.36L146.813 160.425L146.825 157.831Z" fill="#C5D6F1"/>
<path d="M188.003 173.741C188.003 173.73 188.118 173.741 188.327 173.68C188.525 173.614 188.849 173.449 189.025 173.059C189.118 172.867 189.129 172.63 189.118 172.361C189.118 172.092 189.118 171.801 189.113 171.487C189.113 170.855 189.113 170.124 189.107 169.311C189.107 168.492 189.107 167.58 189.107 166.585C189.107 166.338 189.107 166.079 189.107 165.821C189.118 165.557 189.085 165.315 188.948 165.096C188.816 164.881 188.602 164.711 188.349 164.634C188.102 164.557 187.81 164.601 187.519 164.584C185.189 164.579 182.54 164.573 179.611 164.568C167.877 164.524 151.686 164.464 133.803 164.398C133.308 164.387 132.847 164.788 132.797 165.282C132.781 165.805 132.786 166.382 132.781 166.926C132.775 168.03 132.77 169.13 132.764 170.218C132.764 170.762 132.759 171.306 132.759 171.844C132.77 172.114 132.731 172.394 132.792 172.614C132.852 172.839 133 173.043 133.193 173.18C133.396 173.317 133.61 173.367 133.874 173.356L134.671 173.361C135.204 173.361 135.732 173.367 136.259 173.367C140.475 173.389 144.547 173.411 148.422 173.433C156.171 173.482 163.151 173.521 169.015 173.559C174.868 173.603 179.611 173.642 182.897 173.669C184.529 173.691 185.799 173.702 186.673 173.713C187.096 173.719 187.426 173.73 187.656 173.73C187.893 173.73 188.003 173.741 188.003 173.741C188.003 173.741 187.887 173.752 187.667 173.752C187.437 173.752 187.112 173.757 186.684 173.763C185.81 173.763 184.54 173.768 182.908 173.773C179.622 173.768 174.879 173.763 169.026 173.757C163.162 173.741 156.182 173.719 148.433 173.691C144.558 173.675 140.486 173.658 136.27 173.642C135.743 173.642 135.215 173.636 134.682 173.636L133.885 173.631C133.616 173.647 133.286 173.581 133.044 173.405C132.797 173.235 132.61 172.977 132.528 172.685C132.445 172.378 132.495 172.108 132.484 171.839C132.484 171.3 132.489 170.756 132.489 170.212C132.495 169.124 132.5 168.025 132.5 166.92C132.506 166.36 132.495 165.832 132.517 165.244C132.577 164.612 133.165 164.09 133.808 164.106C151.692 164.205 167.882 164.293 179.616 164.359C182.545 164.381 185.194 164.398 187.525 164.42C187.81 164.436 188.102 164.387 188.398 164.48C188.684 164.568 188.926 164.766 189.074 165.013C189.234 165.255 189.267 165.563 189.25 165.816C189.25 166.074 189.245 166.332 189.245 166.579C189.234 167.574 189.228 168.487 189.223 169.305C189.212 170.124 189.206 170.85 189.201 171.482C189.195 171.795 189.195 172.086 189.19 172.356C189.195 172.619 189.179 172.878 189.074 173.076C188.882 173.482 188.541 173.647 188.332 173.702C188.124 173.763 188.003 173.741 188.003 173.741Z" fill="#E0E0E0"/>
<path d="M162.438 143.173L136.586 143.054L136.575 145.478L162.427 145.597L162.438 143.173Z" fill="#C5D6F1"/>
<path opacity="0.2" d="M162.438 143.173L136.586 143.054L136.575 145.478L162.427 145.597L162.438 143.173Z" fill="#C5D6F1"/>
<path d="M138.93 169.256C138.925 169.921 138.419 170.459 137.793 170.454C137.166 170.448 136.666 169.91 136.666 169.245C136.672 168.58 137.177 168.041 137.804 168.047C138.43 168.047 138.936 168.591 138.93 169.256Z" fill="#B1C1D9"/>
<path d="M142.431 169.272C142.426 169.937 141.92 170.476 141.294 170.471C140.667 170.471 140.167 169.926 140.167 169.261C140.167 168.596 140.678 168.058 141.305 168.063C141.931 168.063 142.437 168.602 142.431 169.272Z" fill="#B1C1D9"/>
<path d="M145.938 169.289C145.938 169.954 145.427 170.493 144.8 170.487C144.173 170.487 143.673 169.943 143.673 169.278C143.679 168.613 144.184 168.074 144.811 168.08C145.438 168.08 145.938 168.618 145.938 169.289Z" fill="#B1C1D9"/>
<path d="M149.439 169.305C149.439 169.97 148.927 170.509 148.301 170.503C147.674 170.503 147.174 169.959 147.174 169.294C147.174 168.629 147.685 168.091 148.312 168.096C148.938 168.096 149.444 168.635 149.439 169.305Z" fill="#B1C1D9"/>
<path d="M152.94 169.316C152.94 169.981 152.428 170.52 151.802 170.515C151.175 170.515 150.675 169.97 150.675 169.305C150.681 168.64 151.186 168.102 151.813 168.107C152.439 168.113 152.945 168.651 152.94 169.316Z" fill="#B1C1D9"/>
<path d="M156.445 169.333C156.445 169.998 155.934 170.536 155.308 170.531C154.681 170.531 154.181 169.987 154.181 169.322C154.181 168.657 154.692 168.118 155.319 168.124C155.94 168.129 156.445 168.668 156.445 169.333Z" fill="#B1C1D9"/>
<path d="M159.946 169.349C159.941 170.014 159.435 170.553 158.809 170.547C158.182 170.542 157.682 170.003 157.682 169.338C157.682 168.673 158.193 168.135 158.82 168.14C159.446 168.146 159.946 168.684 159.946 169.349Z" fill="#B1C1D9"/>
<path d="M163.447 169.366C163.447 170.031 162.936 170.569 162.31 170.564C161.683 170.558 161.183 170.02 161.183 169.355C161.183 168.69 161.694 168.151 162.321 168.157C162.947 168.157 163.453 168.701 163.447 169.366Z" fill="#B1C1D9"/>
<path d="M166.948 169.382C166.948 170.047 166.437 170.586 165.811 170.58C165.184 170.58 164.684 170.036 164.684 169.371C164.69 168.706 165.195 168.168 165.822 168.173C166.448 168.173 166.954 168.717 166.948 169.382Z" fill="#B1C1D9"/>
<g opacity="0.2">
<g opacity="0.2">
<path opacity="0.2" d="M138.93 169.256C138.925 169.921 138.419 170.459 137.793 170.454C137.166 170.448 136.666 169.91 136.666 169.245C136.672 168.58 137.177 168.041 137.804 168.047C138.43 168.047 138.936 168.591 138.93 169.256Z" fill="#C5D6F1"/>
</g>
<g opacity="0.2">
<path opacity="0.2" d="M142.431 169.272C142.426 169.937 141.92 170.476 141.294 170.471C140.667 170.471 140.167 169.926 140.167 169.261C140.167 168.596 140.678 168.058 141.305 168.063C141.931 168.063 142.437 168.602 142.431 169.272Z" fill="#C5D6F1"/>
</g>
<g opacity="0.2">
<path opacity="0.2" d="M145.938 169.289C145.938 169.954 145.427 170.493 144.8 170.487C144.173 170.487 143.673 169.943 143.673 169.278C143.679 168.613 144.184 168.074 144.811 168.08C145.438 168.08 145.938 168.618 145.938 169.289Z" fill="#C5D6F1"/>
</g>
<g opacity="0.2">
<path opacity="0.2" d="M149.439 169.305C149.439 169.97 148.927 170.509 148.301 170.503C147.674 170.503 147.174 169.959 147.174 169.294C147.174 168.629 147.685 168.091 148.312 168.096C148.938 168.096 149.444 168.635 149.439 169.305Z" fill="#C5D6F1"/>
</g>
<g opacity="0.2">
<path opacity="0.2" d="M152.94 169.316C152.94 169.981 152.428 170.52 151.802 170.515C151.175 170.515 150.675 169.97 150.675 169.305C150.681 168.64 151.186 168.102 151.813 168.107C152.439 168.113 152.945 168.651 152.94 169.316Z" fill="#C5D6F1"/>
</g>
<g opacity="0.2">
<path opacity="0.2" d="M156.445 169.333C156.445 169.998 155.934 170.536 155.308 170.531C154.681 170.531 154.181 169.987 154.181 169.322C154.181 168.657 154.692 168.118 155.319 168.124C155.94 168.129 156.445 168.668 156.445 169.333Z" fill="#C5D6F1"/>
</g>
<g opacity="0.2">
<path opacity="0.2" d="M159.946 169.349C159.941 170.014 159.435 170.553 158.809 170.547C158.182 170.542 157.682 170.003 157.682 169.338C157.682 168.673 158.193 168.135 158.82 168.14C159.446 168.146 159.946 168.684 159.946 169.349Z" fill="#C5D6F1"/>
</g>
<g opacity="0.2">
<path opacity="0.2" d="M163.447 169.366C163.447 170.031 162.936 170.569 162.31 170.564C161.683 170.558 161.183 170.02 161.183 169.355C161.183 168.69 161.694 168.151 162.321 168.157C162.947 168.157 163.453 168.701 163.447 169.366Z" fill="#C5D6F1"/>
</g>
<g opacity="0.2">
<path opacity="0.2" d="M166.948 169.382C166.948 170.047 166.437 170.586 165.811 170.58C165.184 170.58 164.684 170.036 164.684 169.371C164.69 168.706 165.195 168.168 165.822 168.173C166.448 168.173 166.954 168.717 166.948 169.382Z" fill="#C5D6F1"/>
</g>
</g>
<path d="M161.974 90.0446C162.716 89.7369 163.238 88.9729 163.244 88.0716C163.249 86.8955 162.359 85.9337 161.254 85.9282C160.149 85.9228 159.254 86.8735 159.248 88.0496C159.243 88.9564 159.776 89.7259 160.523 90.0391C157.446 90.5008 157.588 93.8477 157.588 93.8477L164.859 93.8807C164.859 93.8807 165.024 90.5008 161.974 90.0446Z" fill="#C5D6F1"/>
<path opacity="0.1" d="M161.974 90.0446C162.716 89.7369 163.238 88.9729 163.244 88.0716C163.249 86.8955 162.359 85.9337 161.254 85.9282C160.149 85.9228 159.254 86.8735 159.248 88.0496C159.243 88.9564 159.776 89.7259 160.523 90.0391C157.446 90.5008 157.588 93.8477 157.588 93.8477L164.859 93.8807C164.859 93.8807 165.024 90.5008 161.974 90.0446Z" fill="#C5D6F1"/>
<path d="M173.794 96.0737L147.859 95.954L147.845 99.0536L173.78 99.1733L173.794 96.0737Z" fill="#C5D6F1"/>
<path opacity="0.2" d="M173.794 96.0737L147.859 95.954L147.845 99.0536L173.78 99.1733L173.794 96.0737Z" fill="#C5D6F1"/>
<path d="M89.7539 225.871V221.167L81.3288 221.112L81.2573 228.213L81.7794 228.251C84.1042 228.4 93.6065 228.619 95.1618 228.136C96.904 227.603 89.7539 225.871 89.7539 225.871Z" fill="#D7E8F4"/>
<path d="M95.365 227.702C95.365 227.779 92.2159 227.844 88.3248 227.844C84.4393 227.844 81.2847 227.779 81.2847 227.702C81.2847 227.625 84.4338 227.559 88.3248 227.559C92.2104 227.559 95.365 227.625 95.365 227.702Z" fill="#263238"/>
<path d="M89.9023 226.833C89.8308 226.795 89.8913 226.547 90.0727 226.306C90.254 226.058 90.4739 225.932 90.5288 225.987C90.5838 226.042 90.4684 226.251 90.3035 226.476C90.1386 226.696 89.9737 226.872 89.9023 226.833Z" fill="#263238"/>
<path d="M90.4405 227.141C90.3691 227.113 90.4076 226.833 90.5724 226.542C90.7373 226.245 90.9571 226.069 91.0176 226.119C91.0781 226.168 90.9736 226.41 90.8197 226.679C90.6659 226.954 90.512 227.168 90.4405 227.141Z" fill="#263238"/>
<path d="M83.8239 227.68C83.7909 227.702 83.6645 227.581 83.4831 227.372C83.3018 227.168 83.0599 226.877 82.7467 226.63C82.4334 226.388 82.0872 226.262 81.8344 226.234C81.5761 226.201 81.4112 226.24 81.3947 226.196C81.3782 226.163 81.5376 226.047 81.8399 226.031C82.1367 226.009 82.5598 226.124 82.9171 226.405C83.2743 226.679 83.4996 227.015 83.6425 227.251C83.7909 227.498 83.8568 227.658 83.8239 227.68Z" fill="#263238"/>
<path d="M89.9296 225.948C89.9736 226.014 89.8252 226.179 89.5834 226.267C89.3416 226.355 89.1272 226.328 89.1162 226.245C89.1052 226.168 89.2756 226.075 89.4844 225.998C89.6933 225.921 89.8856 225.882 89.9296 225.948Z" fill="#263238"/>
<path d="M89.7978 225.492C89.8033 225.569 89.5835 225.641 89.2977 225.641C89.0119 225.646 88.7866 225.586 88.7921 225.503C88.7976 225.426 89.0229 225.355 89.2922 225.355C89.5615 225.355 89.7868 225.415 89.7978 225.492Z" fill="#263238"/>
<path d="M110.5 225.871V221.167L102.075 221.112L102.004 228.141L102.526 228.18C104.851 228.328 114.353 228.619 115.908 228.141C117.651 227.603 110.5 225.871 110.5 225.871Z" fill="#D7E8F4"/>
<path d="M116.112 227.713C116.112 227.79 112.962 227.855 109.071 227.855C105.186 227.855 102.031 227.79 102.031 227.713C102.031 227.636 105.18 227.57 109.071 227.57C112.962 227.57 116.112 227.636 116.112 227.713Z" fill="#263238"/>
<path d="M110.649 226.833C110.577 226.795 110.638 226.547 110.819 226.306C111.001 226.058 111.22 225.932 111.275 225.987C111.33 226.042 111.215 226.251 111.05 226.476C110.885 226.696 110.72 226.872 110.649 226.833Z" fill="#263238"/>
<path d="M111.188 227.141C111.116 227.113 111.155 226.833 111.32 226.542C111.484 226.245 111.704 226.069 111.765 226.119C111.825 226.168 111.721 226.41 111.567 226.679C111.413 226.954 111.265 227.168 111.188 227.141Z" fill="#263238"/>
<path d="M104.57 227.68C104.537 227.702 104.411 227.581 104.23 227.372C104.048 227.168 103.807 226.877 103.493 226.63C103.18 226.388 102.834 226.262 102.581 226.234C102.323 226.201 102.158 226.24 102.141 226.196C102.125 226.163 102.284 226.047 102.586 226.031C102.883 226.009 103.306 226.124 103.664 226.405C104.021 226.679 104.246 227.015 104.389 227.251C104.537 227.498 104.603 227.658 104.57 227.68Z" fill="#263238"/>
<path d="M110.677 225.948C110.715 226.014 110.572 226.179 110.33 226.267C110.089 226.355 109.874 226.328 109.863 226.245C109.852 226.168 110.023 226.075 110.232 225.998C110.446 225.921 110.633 225.882 110.677 225.948Z" fill="#263238"/>
<path d="M110.544 225.492C110.55 225.569 110.33 225.641 110.044 225.641C109.759 225.646 109.533 225.586 109.539 225.503C109.544 225.426 109.769 225.355 110.039 225.355C110.308 225.355 110.533 225.415 110.544 225.492Z" fill="#263238"/>
<path d="M141.541 86.3323C141.321 86.107 140.782 86.2114 140.782 86.2114C140.782 86.2114 140.876 85.5684 140.777 85.2606C140.678 84.9474 139.986 85.0078 139.986 85.0078C139.986 85.0078 139.942 84.7111 140.002 84.2274C140.019 84.1065 139.953 84.0186 139.843 83.9526C139.513 83.7548 138.809 83.7658 138.809 83.7658C138.386 83.4635 140.101 81.0618 140.739 80.2924C141.365 79.534 141.261 78.924 140.695 78.924C140.31 78.924 138.304 81.2322 137.694 82.0071C137.084 82.782 135.441 84.9364 135.386 83.2162C135.331 81.496 134.638 80.1935 134.209 79.9736C133.775 79.7538 133.314 80.2704 133.55 80.7486C133.742 81.1333 133.863 81.8807 133.935 82.4413C133.99 82.9029 133.973 83.3756 133.869 83.8317C133.583 85.1177 133.275 85.9586 133.127 86.3158L133.083 86.2939C133.083 86.2939 121.085 97.7966 120.223 98.6155C119.442 99.3519 103.856 97.7417 100.734 97.4119C99.8825 97.3185 98.6185 97.1426 97.5193 97.1921C96.1673 97.2525 95.9255 97.4449 94.568 97.4614C90.4187 97.5163 86.9563 97.923 84.3843 98.3572C81.2736 98.8848 78.7181 101.1 77.7563 104.106C74.6072 113.943 67.4736 137.229 66.2041 150.309C65.2038 152.189 64.0827 154.387 63.632 155.624C62.7472 158.031 62.9615 158.108 63.2583 158.168C64.0552 158.317 64.973 153.997 65.3137 155.041C65.6545 156.085 63.5826 160.191 64.4234 160.312C65.5226 160.471 66.3964 155.932 66.4953 155.552C66.5943 155.184 67.1493 155.31 67.0394 155.646C66.8801 156.129 65.3357 161.257 66.4074 161.422C67.0065 161.515 67.0669 160.427 67.0669 160.427C67.0669 160.427 68.1606 155.525 68.6662 155.618C69.1773 155.712 68.6332 158.613 68.3804 159.581C68.1276 160.537 68.4848 161.043 68.9959 160.801C69.3477 160.636 70.1885 157.701 70.4194 156.739C70.6447 155.778 71.2273 153.134 72.0022 154.667C72.7771 156.201 73.9532 157.091 74.4368 157.113C74.9204 157.13 75.1238 156.465 74.7061 156.129C74.3654 155.86 73.9422 155.239 73.6454 154.755C73.3981 154.36 73.2167 153.926 73.1178 153.469C72.7331 151.711 72.7331 150.688 72.7331 150.688L72.6452 150.122C73.8762 144.028 77.4211 126.139 82.5212 114.713L84.6206 119.033L85.5329 122.231L79.9381 136.048L103.796 135.734L100.24 122.028L104.559 107.739C109.236 107.843 121.25 108.019 123.267 107.118C125.784 105.991 138.809 89.5749 138.809 89.5749C139.689 88.8769 140.585 88.1185 141.244 87.4645C141.239 87.4535 142.019 86.827 141.541 86.3323Z" fill="#EAC5B0"/>
<path d="M78.894 125.875C79.5865 123.512 83.1423 111.827 83.1423 111.827C83.1423 111.827 84.8899 121.352 84.4283 122.5C83.9007 123.825 82.9279 125.336 82.9279 125.336C78.894 131.481 79.4216 134.553 79.4216 134.553L103.79 133.811C103.851 130.403 101.834 122.478 101.41 121.214C100.987 119.95 102.389 115.806 102.389 115.806C102.389 115.806 105.142 113.009 105.038 111.569C104.823 108.667 104.56 107.733 104.56 107.733L119.387 108.277L118.92 98.2143L97.6073 96.0819C96.8708 98.1813 90.1549 97.1536 90.1549 97.1536C82.9059 97.3899 82.4718 98.7254 79.4491 101.067C76.4264 103.408 71.4526 123.501 71.4526 123.501L78.894 125.875Z" fill="#D7E8F4"/>
<path d="M93.3038 123.495C93.3038 123.534 92.8147 123.567 92.0178 123.561C91.2264 123.556 90.1272 123.506 88.9237 123.385C87.7201 123.264 86.6319 123.094 85.857 122.94C85.0766 122.786 84.6039 122.66 84.6094 122.621C84.6149 122.583 85.104 122.638 85.89 122.742C86.6759 122.841 87.753 122.979 88.9511 123.099C90.1492 123.22 91.2374 123.303 92.0233 123.358C92.8202 123.418 93.3093 123.457 93.3038 123.495Z" fill="#263238"/>
<path d="M94.9747 121.423C94.9857 121.456 94.48 121.649 93.6447 121.879C92.8093 122.105 91.6332 122.358 90.3142 122.517C88.9952 122.671 87.7916 122.704 86.9288 122.682C86.0604 122.66 85.5273 122.588 85.5273 122.55C85.5273 122.506 86.0659 122.506 86.9288 122.478C87.7916 122.451 88.9787 122.391 90.2812 122.231C91.5837 122.077 92.7544 121.857 93.6007 121.682C94.4416 121.506 94.9637 121.385 94.9747 121.423Z" fill="#263238"/>
<path d="M103.174 112.179C103.213 112.185 103.152 112.663 103.009 113.421C102.866 114.18 102.647 115.224 102.366 116.373C102.086 117.521 101.8 118.549 101.575 119.285C101.35 120.027 101.185 120.478 101.146 120.467C101.108 120.456 101.201 119.989 101.377 119.236C101.586 118.379 101.822 117.395 102.086 116.307C102.355 115.218 102.597 114.24 102.812 113.383C102.998 112.63 103.13 112.174 103.174 112.179Z" fill="#263238"/>
<path d="M79.1523 124.473C79.1303 124.55 77.4486 124.16 75.3986 123.599C73.3432 123.039 71.6999 122.522 71.7219 122.445C71.7439 122.368 73.4256 122.764 75.4756 123.319C77.5255 123.88 79.1742 124.396 79.1523 124.473Z" fill="#263238"/>
<path d="M104.823 107.607C104.823 107.618 104.598 107.645 104.191 107.601C103.79 107.557 103.196 107.464 102.515 107.2C101.833 106.942 101.053 106.519 100.327 105.87C99.6019 105.227 98.9534 104.337 98.5412 103.292C98.1236 102.248 97.9807 101.16 98.0466 100.193C98.1126 99.2255 98.3654 98.3517 98.7995 97.7417C99.2282 97.1206 99.7943 96.8239 100.19 96.7194C100.388 96.6645 100.553 96.6535 100.657 96.659C100.767 96.6645 100.822 96.6755 100.822 96.681C100.822 96.7084 100.597 96.6975 100.223 96.8239C99.8602 96.9558 99.3436 97.2635 98.9644 97.8571C98.217 99.0332 98.0081 101.182 98.805 103.188C99.2062 104.194 99.8163 105.046 100.503 105.672C101.19 106.304 101.932 106.738 102.586 107.013C103.916 107.563 104.834 107.541 104.823 107.607Z" fill="#263238"/>
<path d="M117.634 108.079C117.557 108.079 117.497 105.81 117.502 103.018C117.508 100.22 117.574 97.9506 117.656 97.9506C117.733 97.9506 117.794 100.22 117.788 103.018C117.783 105.81 117.717 108.079 117.634 108.079Z" fill="#263238"/>
<path d="M97.475 96.6974C97.5355 95.4719 97.6619 94.0869 97.6619 94.0869C97.6619 94.0869 100.696 93.7517 100.877 90.6191C101.058 87.4864 100.877 80.2594 100.877 80.2594L95.3537 77.4456L89.2808 82.2434L90.2041 97.9065L95.7933 98.2638C96.6727 98.3187 97.4311 97.6152 97.475 96.6974Z" fill="#EAC5B0"/>
<path d="M98.0194 88.1404C98.0304 88.1404 98.0304 88.2009 97.97 88.2778C97.915 88.3493 97.7941 88.4372 97.6237 88.4317C97.272 88.4152 96.9312 88.025 96.8103 87.5524C96.7499 87.3106 96.7499 87.0688 96.7939 86.8544C96.8323 86.6456 96.9532 86.4367 97.1236 86.3818C97.206 86.3488 97.294 86.3543 97.3544 86.3873C97.4204 86.4202 97.4589 86.4697 97.4808 86.5137C97.5193 86.6071 97.4918 86.6621 97.4808 86.6566C97.4698 86.6566 97.4698 86.6071 97.4259 86.5467C97.3819 86.4862 97.2775 86.4312 97.1676 86.4917C97.0522 86.5466 96.9697 86.695 96.9422 86.8819C96.9093 87.0688 96.9093 87.2886 96.9697 87.5029C97.0796 87.9261 97.3764 88.2778 97.6347 88.3108C97.7666 88.3273 97.871 88.2778 97.9315 88.2284C97.9864 88.1789 98.0084 88.1349 98.0194 88.1404Z" fill="#EB996E"/>
<path d="M102.762 78.5722C102.339 77.1323 100.806 76.4123 99.4097 76.0166C97.2829 75.4121 94.9801 75.1483 92.9082 75.9122C90.8307 76.6761 88.3356 78.0226 88.3356 80.3144C87.1101 80.2154 86.4121 81.2871 85.923 82.6171C85.6372 83.403 85.4448 84.2768 85.4009 85.1452L85.3789 85.1397C85.2195 88.1404 84.3841 92.2788 82.4386 94.4991C81.3614 95.7247 79.8171 96.571 79.1906 98.0989C78.6465 99.4288 78.9268 100.995 78.4157 102.336C77.9595 103.518 76.9538 104.359 76.2338 105.386C74.662 107.629 74.5576 110.794 75.7117 113.295C76.8658 115.795 79.1521 117.626 81.6912 118.466C84.2303 119.307 87.0002 119.214 89.5832 118.538C91.4902 118.043 93.3478 117.219 94.8702 115.916C96.3925 114.619 97.5576 112.811 97.9039 110.794C98.2886 108.546 97.6621 106.271 97.2004 104.04C95.7385 96.9832 96.1562 96.6205 98.0028 90.0749C98.0468 89.9595 98.0688 89.8386 98.1017 89.7232C98.1237 89.6353 98.1512 89.5528 98.1732 89.4649H98.1677C98.2171 89.2066 98.2556 88.9483 98.2556 88.6845C97.7225 88.8933 97.074 88.7559 96.6673 88.3383C96.2551 87.9261 96.1067 87.2556 96.2936 86.695C96.5079 86.0465 97.1015 85.6178 97.7115 85.3595C98.3216 85.1012 98.9756 84.9748 99.5746 84.689C100.844 84.0845 101.723 82.8314 102.323 81.5179C102.735 80.5946 103.048 79.5449 102.762 78.5722Z" fill="#263238"/>
<path d="M98.2393 88.2723C98.2557 88.2668 98.3657 88.4702 98.5305 88.8164C98.6954 89.1627 98.9152 89.6518 99.1571 90.2178L99.201 90.3223L99.0856 90.3333C98.9043 90.3497 98.7174 90.3662 98.525 90.3827C98.1403 90.4102 97.8216 90.4542 97.4479 90.4487C97.3874 90.4377 97.3215 90.3827 97.305 90.3223C97.283 90.2618 97.2885 90.2124 97.294 90.1684C97.3105 90.0805 97.327 90.02 97.3434 89.9431L97.4424 89.5529C97.5633 89.0802 97.6512 88.7889 97.6732 88.7944C97.6952 88.7999 97.6512 89.1022 97.5578 89.5803L97.4808 89.976C97.4534 90.1079 97.4039 90.3058 97.4753 90.2948C97.7501 90.2838 98.1403 90.2398 98.5031 90.2124C98.6954 90.1959 98.8768 90.1849 99.0636 90.1684L98.9922 90.2838C98.7559 89.7177 98.558 89.2176 98.4206 88.8604C98.2887 88.5031 98.2173 88.2833 98.2393 88.2723Z" fill="#E8505B"/>
<path d="M79.4213 134.547L103.79 133.805L114.386 175.211L112.435 222.706H99.536L101.135 176.222L91.71 147.396L93.1609 224.547L80.1413 224.739L78.7673 152.222C78.7123 150.205 78.0473 145.66 78.2947 143.659L79.4213 134.547Z" fill="#0B4870"/>
<path d="M94.9579 147.985C94.9524 148.023 94.4962 148.001 93.7653 147.913C93.0344 147.825 92.0231 147.671 90.9185 147.452C89.8138 147.226 88.8246 146.979 88.1156 146.776C87.4066 146.572 86.978 146.418 86.9835 146.38C87.0054 146.303 88.7751 146.732 90.9734 147.171C93.1718 147.611 94.9689 147.902 94.9579 147.985Z" fill="#455A64"/>
<path d="M112.32 220.101C112.32 220.178 109.401 220.244 105.796 220.244C102.191 220.244 99.2725 220.178 99.2725 220.101C99.2725 220.024 102.191 219.958 105.796 219.958C109.401 219.958 112.32 220.018 112.32 220.101Z" fill="#455A64"/>
<path d="M93.0513 222.541C93.0513 222.618 90.2209 222.684 86.7256 222.684C83.2303 222.684 80.3999 222.618 80.3999 222.541C80.3999 222.464 83.2303 222.398 86.7256 222.398C90.2155 222.398 93.0513 222.464 93.0513 222.541Z" fill="#455A64"/>
<path d="M91.3693 222.343C91.2924 222.343 90.9461 205.487 90.6054 184.697C90.2591 163.901 90.0503 147.039 90.1272 147.039C90.2042 147.039 90.5504 163.895 90.8912 184.691C91.2374 205.482 91.4517 222.343 91.3693 222.343Z" fill="#455A64"/>
<path d="M110.588 220.101C110.583 220.101 110.583 220.024 110.583 219.875C110.588 219.716 110.588 219.496 110.594 219.216C110.61 218.622 110.638 217.771 110.665 216.688C110.742 214.473 110.852 211.302 110.99 207.383C111.292 199.513 111.704 188.67 112.166 176.689C112.171 176.579 112.177 176.469 112.177 176.365L112.182 176.403C109.291 164.84 106.681 154.387 104.79 146.808C103.862 143.033 103.109 139.977 102.587 137.845C102.334 136.795 102.141 135.976 102.004 135.405C101.944 135.135 101.894 134.926 101.861 134.767C101.828 134.624 101.817 134.547 101.823 134.547C101.828 134.547 101.85 134.619 101.889 134.762C101.933 134.915 101.988 135.124 102.059 135.388C102.207 135.96 102.422 136.773 102.696 137.817C103.241 139.944 104.026 142.994 104.988 146.759C106.901 154.332 109.539 164.78 112.463 176.338L112.468 176.36V176.381C112.463 176.48 112.457 176.596 112.457 176.706C111.968 188.681 111.523 199.53 111.199 207.394C111.023 211.313 110.885 214.484 110.786 216.693C110.731 217.782 110.687 218.628 110.66 219.221C110.643 219.502 110.627 219.716 110.621 219.881C110.605 220.024 110.594 220.101 110.588 220.101Z" fill="#455A64"/>
<path d="M106.384 175.398C106.395 175.475 105.12 175.761 103.537 176.03C102.35 176.233 101.328 176.376 100.883 176.398V176.288C101.031 176.327 101.114 176.36 101.108 176.382C101.103 176.404 101.02 176.409 100.866 176.404L100.531 176.387L100.861 176.288C101.29 176.162 102.301 175.953 103.488 175.75C105.076 175.475 106.373 175.321 106.384 175.398Z" fill="#455A64"/>
<path d="M106.142 176.975C106.131 177.052 104.988 176.964 103.576 176.86C102.163 176.75 101.02 176.656 101.02 176.579C101.02 176.502 102.174 176.464 103.598 176.574C105.015 176.684 106.148 176.898 106.142 176.975Z" fill="#455A64"/>
<path opacity="0.2" d="M79.3169 135.421C79.9049 136.251 80.7458 136.542 81.7241 136.702C82.7023 136.861 83.6971 136.757 84.6808 136.647C90.9735 135.949 97.6345 135.306 103.795 133.805C95.8209 134.25 87.4013 134.102 79.4268 134.547C79.4268 134.547 79.3609 135.097 79.3444 135.229" fill="black"/>
<g opacity="0.2">
<path opacity="0.2" d="M87.5337 146.66L92.0293 164.104L91.716 147.396L87.5337 146.66Z" fill="black"/>
</g>
</svg>
